<svg width="20" height="21" viewBox="0 0 20 21" fill="none" xmlns="http://www.w3.org/2000/svg">
<mask id="mask0_12750_23525" style="mask-type:alpha" maskUnits="userSpaceOnUse" x="0" y="0" width="20" height="21">
<rect y="0.294922" width="20" height="20" fill="#D9D9D9"/>
</mask>
<g mask="url(#mask0_12750_23525)">
<path d="M10.0013 17.7956L8.79297 16.7122C7.39019 15.4484 6.23047 14.3581 5.3138 13.4414C4.39714 12.5247 3.66797 11.7018 3.1263 10.9727C2.58464 10.2435 2.20616 9.57335 1.99089 8.96224C1.77561 8.35113 1.66797 7.72613 1.66797 7.08724C1.66797 5.78168 2.10547 4.69141 2.98047 3.81641C3.85547 2.94141 4.94575 2.50391 6.2513 2.50391C6.97352 2.50391 7.66102 2.65668 8.3138 2.96224C8.96658 3.2678 9.52908 3.69835 10.0013 4.25391C10.4735 3.69835 11.036 3.2678 11.6888 2.96224C12.3416 2.65668 13.0291 2.50391 13.7513 2.50391C15.0569 2.50391 16.1471 2.94141 17.0221 3.81641C17.8971 4.69141 18.3346 5.78168 18.3346 7.08724C18.3346 7.72613 18.227 8.35113 18.0117 8.96224C17.7964 9.57335 17.418 10.2435 16.8763 10.9727C16.3346 11.7018 15.6055 12.5247 14.6888 13.4414C13.7721 14.3581 12.6124 15.4484 11.2096 16.7122L10.0013 17.7956ZM10.0013 15.5456C11.3346 14.3511 12.4319 13.3268 13.293 12.4727C14.1541 11.6185 14.8346 10.8754 15.3346 10.2435C15.8346 9.61155 16.1819 9.04905 16.3763 8.55599C16.5707 8.06293 16.668 7.57335 16.668 7.08724C16.668 6.25391 16.3902 5.55946 15.8346 5.00391C15.2791 4.44835 14.5846 4.17057 13.7513 4.17057C13.0985 4.17057 12.4944 4.3546 11.9388 4.72266C11.3832 5.09071 11.0013 5.55946 10.793 6.12891H9.20964C9.0013 5.55946 8.61936 5.09071 8.0638 4.72266C7.50825 4.3546 6.90408 4.17057 6.2513 4.17057C5.41797 4.17057 4.72352 4.44835 4.16797 5.00391C3.61241 5.55946 3.33464 6.25391 3.33464 7.08724C3.33464 7.57335 3.43186 8.06293 3.6263 8.55599C3.82075 9.04905 4.16797 9.61155 4.66797 10.2435C5.16797 10.8754 5.84852 11.6185 6.70964 12.4727C7.57075 13.3268 8.66797 14.3511 10.0013 15.5456Z" fill="#AFAFAF"/>
</g>
</svg>
