<svg width="21" height="21" viewBox="0 0 21 21" fill="none" xmlns="http://www.w3.org/2000/svg">
<mask id="mask0_16629_22183" style="mask-type:alpha" maskUnits="userSpaceOnUse" x="0" y="0" width="21" height="21">
<rect x="0.418945" y="0.167969" width="20" height="20" fill="#D9D9D9"/>
</mask>
<g mask="url(#mask0_16629_22183)">
<path d="M10.4186 17.107L9.49875 16.2801C8.11734 15.0269 6.97498 13.95 6.07166 13.0493C5.16836 12.1487 4.45255 11.3472 3.92424 10.6447C3.39593 9.94224 3.0268 9.30148 2.81687 8.72243C2.60693 8.14337 2.50195 7.55577 2.50195 6.95962C2.50195 5.77693 2.90072 4.78682 3.69827 3.98928C4.49581 3.19174 5.48592 2.79297 6.6686 2.79297C7.39617 2.79297 8.08367 2.96312 8.7311 3.30341C9.37853 3.64368 9.94103 4.13166 10.4186 4.76734C10.8962 4.13166 11.4587 3.64368 12.1061 3.30341C12.7535 2.96312 13.441 2.79297 14.1686 2.79297C15.3513 2.79297 16.3414 3.19174 17.1389 3.98928C17.9365 4.78682 18.3352 5.77693 18.3352 6.95962C18.3352 7.55577 18.2303 8.14337 18.0203 8.72243C17.8104 9.30148 17.4413 9.94224 16.913 10.6447C16.3846 11.3472 15.6702 12.1487 14.7695 13.0493C13.8689 13.95 12.7252 15.0269 11.3385 16.2801L10.4186 17.107ZM10.4186 15.4179C11.7519 14.2182 12.8492 13.1898 13.7103 12.333C14.5714 11.4762 15.2519 10.7318 15.7519 10.0998C16.2519 9.4679 16.5992 8.90673 16.7936 8.41634C16.988 7.92596 17.0853 7.44038 17.0853 6.95962C17.0853 6.12628 16.8075 5.43184 16.2519 4.87628C15.6964 4.32073 15.0019 4.04295 14.1686 4.04295C13.5105 4.04295 12.9023 4.22965 12.3441 4.60305C11.7859 4.97644 11.3438 5.49594 11.018 6.16155H9.81925C9.48805 5.49061 9.04468 4.96977 8.48912 4.59903C7.93357 4.22831 7.32672 4.04295 6.6686 4.04295C5.84061 4.04295 5.1475 4.32073 4.58927 4.87628C4.03104 5.43184 3.75193 6.12628 3.75193 6.95962C3.75193 7.44038 3.84915 7.92596 4.0436 8.41634C4.23804 8.90673 4.58527 9.4679 5.08527 10.0998C5.58527 10.7318 6.26582 11.4748 7.12693 12.329C7.98804 13.1832 9.08527 14.2128 10.4186 15.4179Z" fill="#383838"/>
</g>
</svg>
