<svg width="10" height="16" viewBox="0 0 10 16" fill="none" xmlns="http://www.w3.org/2000/svg">
<path d="M6.83335 0.395752C5.81116 0.395752 4.83084 0.801815 4.10805 1.52461C3.38525 2.24741 2.97919 3.22773 2.97919 4.24992V6.39575H0.916687C0.813354 6.39575 0.729187 6.47909 0.729187 6.58325V9.41659C0.729187 9.51992 0.81252 9.60409 0.916687 9.60409H2.97919V15.4166C2.97919 15.5199 3.06252 15.6041 3.16669 15.6041H6.00002C6.10335 15.6041 6.18752 15.5208 6.18752 15.4166V9.60409H8.26835C8.35419 9.60409 8.42919 9.54575 8.45002 9.46242L9.15835 6.62909C9.16532 6.60144 9.1659 6.57256 9.16003 6.54466C9.15416 6.51676 9.142 6.49056 9.12449 6.46807C9.10697 6.44557 9.08456 6.42736 9.05894 6.41483C9.03333 6.4023 9.0052 6.39577 8.97669 6.39575H6.18752V4.24992C6.18752 4.16511 6.20423 4.08113 6.23668 4.00277C6.26914 3.92441 6.31671 3.85322 6.37668 3.79325C6.43665 3.73327 6.50785 3.6857 6.5862 3.65325C6.66456 3.62079 6.74854 3.60409 6.83335 3.60409H9.00002C9.10335 3.60409 9.18752 3.52075 9.18752 3.41659V0.583252C9.18752 0.479919 9.10419 0.395752 9.00002 0.395752H6.83335Z" fill="#1C4980"/>
</svg>
