<svg width="18" height="14" viewBox="0 0 18 14" fill="none" xmlns="http://www.w3.org/2000/svg">
<path fill-rule="evenodd" clip-rule="evenodd" d="M9.00002 0.333252C9.71252 0.333252 10.4434 0.351585 11.1517 0.381585L11.9884 0.421585L12.7892 0.469085L13.5392 0.519919L14.2242 0.573252C14.9676 0.63015 15.6671 0.947374 16.1996 1.46912C16.7322 1.99086 17.0637 2.6837 17.1359 3.42575L17.1692 3.77992L17.2317 4.53825C17.29 5.32409 17.3334 6.18075 17.3334 6.99992C17.3334 7.81909 17.29 8.67575 17.2317 9.46159L17.1692 10.2199C17.1584 10.3416 17.1475 10.4591 17.1359 10.5741C17.0637 11.3163 16.732 12.0092 16.1993 12.531C15.6666 13.0527 14.9669 13.3699 14.2234 13.4266L13.54 13.4791L12.79 13.5308L11.9884 13.5783L11.1517 13.6183C10.4349 13.6494 9.7175 13.6655 9.00002 13.6666C8.28254 13.6655 7.56516 13.6494 6.84835 13.6183L6.01169 13.5783L5.21085 13.5308L4.46085 13.4791L3.77585 13.4266C3.03248 13.3697 2.33298 13.0525 1.80041 12.5307C1.26785 12.009 0.936332 11.3161 0.864187 10.5741L0.830854 10.2199L0.768354 9.46159C0.704635 8.64253 0.670724 7.82144 0.666687 6.99992C0.666687 6.18075 0.71002 5.32409 0.768354 4.53825L0.830854 3.77992C0.841687 3.65825 0.85252 3.54075 0.864187 3.42575C0.936304 2.68383 1.2677 1.9911 1.8001 1.46937C2.33249 0.947645 3.03179 0.630337 3.77502 0.573252L4.45919 0.519919L5.20919 0.469085L6.01085 0.421585L6.84752 0.381585C7.5646 0.350446 8.28226 0.334331 9.00002 0.333252ZM7.33335 4.97909V9.02075C7.33335 9.40575 7.75002 9.64575 8.08335 9.45409L11.5834 7.43325C11.6595 7.38941 11.7228 7.32627 11.7668 7.2502C11.8107 7.17412 11.8339 7.0878 11.8339 6.99992C11.8339 6.91204 11.8107 6.82572 11.7668 6.74964C11.7228 6.67356 11.6595 6.61043 11.5834 6.56659L8.08335 4.54659C8.00732 4.50269 7.92107 4.47958 7.83327 4.4796C7.74548 4.47961 7.65923 4.50274 7.58321 4.54667C7.5072 4.59059 7.44408 4.65375 7.40022 4.72981C7.35636 4.80586 7.3333 4.89212 7.33335 4.97992V4.97909Z" fill="#1C4980"/>
</svg>
