<svg id="Layer_1" data-name="Layer 1" xmlns="http://www.w3.org/2000/svg" viewBox="0 0 70 70"><defs><style>.cls-1{fill:#175dad}</style></defs><path class="cls-1" d="M35 67.5A32.5 32.5 0 1167.5 35 32.51 32.51 0 0135 67.5zm0-64.27A31.77 31.77 0 1066.76 35 31.75 31.75 0 0035 3.23z"/><path class="cls-1" d="M59.35 35a24.35 24.35 0 11-24.26-24.34A24.33 24.33 0 0159.35 35zm-7.72-3.6a7.37 7.37 0 00-.1-1.31 4.92 4.92 0 00-3.25-4.29 8.08 8.08 0 00-6.55.21 4.44 4.44 0 00-2.41 2.7 8.55 8.55 0 00-.32 4.14 5.11 5.11 0 003.65 4.29 8.39 8.39 0 005.31 0 4.76 4.76 0 003.37-3.48 7.8 7.8 0 00.3-2.26zm-24.25 3.73V37c0 .2 0 .31.28.31h2c.19 0 .28 0 .29-.25 0-.54.05-.54.57-.3.16.08.33.17.5.24a6.89 6.89 0 005.31.12 3.5 3.5 0 001.41-5.49 4.36 4.36 0 00-2.26-1.48L31.68 29a2.55 2.55 0 01-.59-.25c-.32-.21-.31-.49 0-.7a1 1 0 01.53-.17 4.68 4.68 0 013.91 1.47.48.48 0 00.43.2h1.87c.21 0 .3-.05.3-.28v-3.4c0-.21 0-.31-.29-.31h-2c-.13 0-.28 0-.27.17 0 .66-.3.33-.54.22a7 7 0 00-4.8-.58 3.53 3.53 0 00-2.87 4.66 4 4 0 002.83 2.48c1.24.4 2.49.76 3.74 1.14a3.41 3.41 0 01.6.24.39.39 0 01.27.34c0 .2-.14.3-.3.38a1.08 1.08 0 01-.3.11 4.16 4.16 0 01-3.93-1 2.08 2.08 0 00-1.85-.72 4.09 4.09 0 01-.7 0c-.27 0-.35.08-.34.35.01.57 0 1.18 0 1.78zm-4.59 2.17h3.4c.31 0 .4-.09.39-.39v-2.19c0-.25-.09-.32-.32-.31s-.72 0-1.07 0-.33-.07-.32-.31v-5.54c0-.28.1-.35.35-.34s.72 0 1.07 0 .3-.07.3-.29v-2.29c0-.21 0-.3-.29-.3h-7c-.23 0-.3.08-.29.3v1.26c0 .42-.14 1 .07 1.22s.81.09 1.24.09.41.1.41.42v4.47c0 .42.14 1-.07 1.22s-.81.06-1.24.09h-.05c-.3 0-.36.11-.35.38v2.09c0 .35.11.4.42.4 1.12.01 2.24.02 3.35.02zm3.85 1.41a9.77 9.77 0 001.25 1.84c.21.24.16.34-.09.48a5.37 5.37 0 00-.81.53.36.36 0 01-.52 0A13.32 13.32 0 0124.11 39a.6.6 0 00-.8-.27C26.16 42.81 30 45 35 45a13.39 13.39 0 0011.34-6.27.58.58 0 00-.77.24A12.21 12.21 0 0143.75 41c-.78.72-.78.72-1.65.17a1.61 1.61 0 00-.28-.17c-.28-.12-.27-.25-.08-.47A9.1 9.1 0 0043 38.7c-.49-.07-.48-.06-.68.24s-.5.75-.77 1.11c-.42.55-.42.54-1.06.25-.24-.11-.49-.21-.73-.3s-.61-.14-.76-.32.12-.51.2-.77 0-.25-.21-.26-.29.15-.32.32c-.1.51-.36.59-.85.45a9.71 9.71 0 00-2.39-.34c-.18 0-.4 0-.37-.26s-.1-.17-.22-.17-.27 0-.25.19-.17.24-.34.24a13 13 0 00-2.16.27 2.21 2.21 0 01-.77.16c-.31-.06-.24-.46-.38-.69v-.08a.33.33 0 00-.38-.08c-.22.06-.05.2 0 .3a1.36 1.36 0 00.14.4c.15.26.05.37-.22.45a9.19 9.19 0 00-1.59.66.3.3 0 01-.46-.1 9.89 9.89 0 01-1-1.4.49.49 0 00-.79-.26zM46.31 24c-3-4.22-7-6.43-12.1-6.23A13.34 13.34 0 0023.33 24a.6.6 0 00.77-.25 12.72 12.72 0 012.33-2.53c.13-.1.23-.23.44-.08.37.28.76.53 1.17.8a12.08 12.08 0 00-1.39 2.07.53.53 0 00.72-.3c.27-.44.61-.85.9-1.29.16-.23.3-.24.54-.11s.68.31 1 .46.65.14.79.34-.16.53-.21.81v.09c.31.11.51 0 .57-.31s.3-.47.69-.36a11.51 11.51 0 002.48.36c.18 0 .39-.06.45.26A.23.23 0 0035 24c.07-.25.22-.22.38-.23a10.44 10.44 0 002.3-.31c.51-.14.89-.19 1 .48 0 .24.26.2.41.17s0-.22 0-.33a.84.84 0 00-.11-.3c-.13-.23-.09-.35.18-.43a9.07 9.07 0 001.67-.7.29.29 0 01.43.09 10 10 0 011 1.37.49.49 0 00.74.19 9.44 9.44 0 00-1.21-1.82c-.16-.19-.17-.29.06-.42a5.46 5.46 0 00.82-.53.38.38 0 01.59 0 13.91 13.91 0 012.29 2.5.56.56 0 00.76.27zM21.83 48.37a3.06 3.06 0 01-.27 1.09.94.94 0 01-.86.61.76.76 0 01-.81-.62c-.08-.32-.33-.19-.5-.18s-.11.25-.08.37a1.2 1.2 0 001 .9 1.41 1.41 0 001.59-.6 3.83 3.83 0 00.27-3.57 1.41 1.41 0 00-1.49-.82 1.45 1.45 0 00-1.39 1 1.74 1.74 0 00.44 2 1.7 1.7 0 002.1-.18zm8.44-.32a4.19 4.19 0 00-.33-1.65 1.41 1.41 0 00-1.37-.85 1.35 1.35 0 00-1.33.85 4.09 4.09 0 000 3.34 1.37 1.37 0 001.34.84 1.43 1.43 0 001.35-.83 4 4 0 00.34-1.7zm-3.88 0a3.83 3.83 0 00-.26-1.5 1.45 1.45 0 00-1.42-1 1.44 1.44 0 00-1.42 1 4.28 4.28 0 000 3.05 1.41 1.41 0 001.39 1 1.45 1.45 0 001.43-1 3.93 3.93 0 00.28-1.55zm17.43 0a3.63 3.63 0 00-.3-1.59 1.41 1.41 0 00-1.39-.9 1.36 1.36 0 00-1.35.88 4.1 4.1 0 000 3.26 1.38 1.38 0 001.35.89 1.42 1.42 0 001.37-.87 3.54 3.54 0 00.32-1.72zm5.18-.54c0-.34.1-.62.12-.91s.14-.37.42-.36h1.39c.23 0 .34 0 .33-.3s-.09-.31-.32-.31h-1.91c-.28 0-.34.12-.37.35-.08.65-.18 1.29-.27 1.94 0 .11-.09.27.05.34a.54.54 0 00.45 0c.1-.05.16-.15.25-.21a1.07 1.07 0 011.71.63 1.13 1.13 0 01-.67 1.3 1 1 0 01-1.33-.58c-.14-.31-.38-.19-.55-.16s-.08.25 0 .37c.23.74.95 1.07 1.91.92a1.63 1.63 0 001.35-1.91 1.6 1.6 0 00-1.86-1.32 5.2 5.2 0 00-.7.21zm-10.81 2.94h1.35c.22 0 .34 0 .34-.3s-.16-.28-.36-.28h-1.81c-.15 0-.36.09-.43-.07s.1-.33.22-.47a2.42 2.42 0 01.64-.46c.34-.19.68-.37 1-.58a1.47 1.47 0 00-.39-2.69 1.59 1.59 0 00-2.08 1.24c0 .15-.2.4.12.45s.48.07.5-.33a.83.83 0 01.65-.82.94.94 0 01.8 1.7c-.38.26-.79.48-1.19.73a2.09 2.09 0 00-1 1.53c0 .25 0 .37.3.35.44-.02.89 0 1.34 0zm8.4-2.45v-2.16c0-.12 0-.27-.15-.29s-.32-.06-.36.11a1 1 0 01-1.11.8c-.21 0-.19.16-.19.31s.08.21.23.21h.51c.17 0 .43.08.42.41v2.75c0 .23 0 .33.31.32s.36 0 .35-.33c-.03-.72-.01-1.44-.01-2.13zM33 48v-2.19c0-.11 0-.27-.14-.28s-.32 0-.38.17a1 1 0 01-1 .74c-.2 0-.23.11-.23.27s.06.26.24.25.35 0 .51 0 .41.06.4.38v2.74c0 .25 0 .37.32.37s.35-.08.34-.35C33 49.41 33 48.72 33 48zm2-.81c-.06.27 0 .4.33.39s.4 0 .39-.35 0-.43-.37-.42-.35.12-.35.4zm.7 2.88c0-.25 0-.4-.32-.4s-.4.1-.4.4.09.37.37.37.42-.06.36-.35z"/><path class="cls-1" d="M31.6 62.21c-.35.86-.71 1.71-1.05 2.57-.11.27-.19.5-.58.39s-.55-.1-.56-.55a29.55 29.55 0 00-.22-3.1c-.16 1-.33 1.92-.49 2.88a.52.52 0 01-.86.39c-.14-.09-.08-.2-.06-.29.22-1.32.44-2.63.67-4 0-.06 0-.15.05-.17.38-.16.74.07 1.12.08.22 0 .26.16.27.34 0 .81.09 1.62.13 2.42 0 .23 0 .46.06.72.16-.06.17-.19.21-.29.36-.85.73-1.71 1.07-2.57a.35.35 0 01.45-.26c1.05.18 1.05.17.86 1.23s-.36 2-.5 3c-.06.38-.2.43-.54.37s-.44-.15-.36-.51c.18-.89.31-1.79.46-2.69zm16.11-2.71c.42.77.82 1.56 1.28 2.31.19.32 0 .4-.2.5s-.37.35-.58 0c-.63-1.16-1.28-2.3-1.94-3.45-.1-.18-.08-.26.1-.4a.91.91 0 011.2 0c.75.51 1.56.94 2.35 1.4h.1v-.1c-.41-.75-.79-1.51-1.24-2.23-.24-.4.07-.42.27-.56s.37-.17.52.12c.59 1.09 1.22 2.16 1.81 3.25.08.13.34.33.13.46s-.52.54-.94.29c-.85-.52-1.71-1-2.56-1.53a1.36 1.36 0 00-.21-.1h-.1zm-21.96 1.19a3.14 3.14 0 01-1 2 2 2 0 01-2.5.19 1.92 1.92 0 01-1.05-2.13 2.72 2.72 0 011.67-2.29 2.23 2.23 0 012.88 2.23zm-.95-.11a1.15 1.15 0 00-.68-1.21 1.12 1.12 0 00-1.29.24 2.38 2.38 0 00-.69 1.53 1.1 1.1 0 00.67 1.12 1.08 1.08 0 001.28-.21 2.39 2.39 0 00.71-1.47zm5.07-50.81c-1 .45-1 .45-1.36-.57-.22-.68-.36-.76-1.05-.57a2.62 2.62 0 01-.4.11c-.28 0-.35.17-.25.45s.21.75.33 1.11-.18.33-.36.37-.44.29-.55-.12c-.36-1.29-.72-2.59-1.1-3.89-.06-.22 0-.26.2-.31.65-.18 1.31-.38 2-.54a1.22 1.22 0 011.46.51 1.29 1.29 0 01-.13 1.59c.95.25.57 1.37 1.21 1.86zm-1.8-2.54c0-.26-.12-.59-.47-.62a2 2 0 00-1.32.39c-.19.14.1.58.17.89v.05c0 .05.12.2.27.15.34-.1.68-.19 1-.31a.49.49 0 00.35-.55zM53.9 17a1.6 1.6 0 01-1.14-.46c-.42-.39-.83-.8-1.26-1.18-.18-.16-.18-.27 0-.44.91-.95 1.82-1.91 2.72-2.88.14-.15.23-.2.4 0 .43.43.89.83 1.31 1.26a1.62 1.62 0 01.26 2.16A2.93 2.93 0 0153.9 17zm-.24-.93a1.49 1.49 0 001.05-.4c1.1-.89 1.1-1.51 0-2.42-.17-.15-.26-.15-.41 0-.54.59-1.1 1.17-1.65 1.76-.06.07-.22.15-.1.26.45.34.68.81 1.11.81zm-32-3.01c-.12 0-.14-.11-.18-.18l-1.91-3.57c-.09-.18-.07-.26.11-.36.84-.43 1.68-.87 2.51-1.33.32-.18.32.11.4.26s.29.32 0 .47c-.54.27-1.06.59-1.61.84s-.1.45 0 .66.18.39.49.19.94-.48 1.39-.75c.29-.17.34 0 .42.21s.32.34 0 .51-.92.5-1.4.73c-.27.12-.27.24-.14.49.38.71.37.71 1.08.33.41-.22.84-.41 1.23-.66s.38-.05.47.18.32.36-.05.55c-.86.43-1.7.89-2.55 1.35zm30.43-2.95c-.06.5-.42.68-.77.47s-.94-.54-1.39-.85-.41.13-.55.3-.28.36.06.54.9.55 1.36.8c.29.16.18.31.05.48s-.14.44-.46.23-.91-.55-1.35-.84c-.2-.13-.32-.15-.47.1-.45.71-.46.7.25 1.13.41.25.81.52 1.23.75s.16.32 0 .47-.12.47-.46.25c-.83-.52-1.67-1-2.5-1.52-.18-.1-.19-.2-.09-.37.71-1.15 1.41-2.3 2.1-3.46.12-.19.21-.16.37-.07L51.89 10c.11 0 .19.08.2.11zm-10.7 54.15c.09-1.3.19-2.56.25-3.83 0-.44.33-.39.57-.46s.45-.24.68.09c.79 1.16 1.62 2.31 2.45 3.45.13.19.12.26-.11.34-.68.22-.69.24-1.06-.34a.42.42 0 00-.58-.18l-.44.13c-.74.21-.75.21-.82 1 0 .19-.08.28-.26.31s-.48.26-.65.11-.02-.44-.03-.62zm1.07-1.46c1.09-.2 1.09-.2.49-1.1l-.41-.6h-.08zM19.34 14.06a2 2 0 01-2.76 1.72 2.94 2.94 0 01-1.71-2.14 1.83 1.83 0 01.82-1.93 1.81 1.81 0 012-.23c.29.15.46.29.08.57s-.43.33-.8.17c-.62-.27-1.36.44-1.2 1.14A2.29 2.29 0 0017 14.94a.9.9 0 001.08-.16.86.86 0 00.28-1c-.08-.21.35-.8.57-.8s.14.1.18.18a2 2 0 01.23.9zM20 57.05a.79.79 0 010 .2c-.06.24 0 .58-.32.63s-.63-.54-.58-.83a1 1 0 00-1.34-1 2.19 2.19 0 00-1.35 1.66.92.92 0 00.41 1 .88.88 0 001 .08.9.9 0 01.95.34c.08.18-.09.2-.18.26a1.81 1.81 0 01-2.17 0 1.9 1.9 0 01-.85-2.18A3.13 3.13 0 0117 55.3a2.07 2.07 0 013 1.75zm15.25 4.88c0-.91 0-.91.7-1 .45 0 .9-.07 1.34-.08a1.27 1.27 0 011.41 1.29c.07 1-.26 1.46-1.19 1.6q-.3 0-.6.06c-.59 0-.59 0-.54.64a3.41 3.41 0 00.05.46c.09.44 0 .64-.52.63-.34 0-.42-.1-.43-.4-.07-1.13-.16-2.24-.22-3.2zm1.63-.21c-.68 0-.71 0-.63.61 0 .26-.21.68.25.74a1.74 1.74 0 001-.11.52.52 0 00.3-.44c.03-.58-.24-.83-.92-.8zm4.33-53.55c-.34-.07-.33.11-.36.23-.11.42-.23.84-.3 1.27s-.27.28-.47.2-.59 0-.47-.43c.32-1.27.62-2.55.91-3.84.06-.25.17-.28.39-.22.86.21 1.71.42 2.58.61.33.07.24.26.18.44s0 .46-.38.34-.9-.22-1.36-.33-.57-.13-.73.43c-.1.35 0 .52.36.57s.81.2 1.22.28.22.28.22.48-.09.38-.38.3c-.53-.13-1.03-.24-1.41-.33zM54 53c.15.6.35 1.18.44 1.78A3.43 3.43 0 0055.69 57c.4.33.05.46-.12.67s-.4.27-.6 0a3.41 3.41 0 00-2.12-1.38c-.6-.15-1.17-.39-1.82-.61l.68-.63c.14-.15.27-.08.42 0l1.69.69a5.8 5.8 0 00-.42-1.44.72.72 0 01.3-1c.1-.2.15-.3.3-.3zM34.24 4.81c.5 0 .57.06.53.57 0 .16-.07.23-.22.23h-.14c-1 .08-1 .08-.93 1.11.06.79.1 1.58.18 2.37 0 .38-.19.36-.42.35s-.53.17-.54-.31c0-1-.14-1.95-.2-2.92 0-.35-.1-.53-.49-.44h-.46c-.37.07-.48-.07-.5-.43s.08-.34.35-.34zm3.67.57c-.1 1.26-.23 2.48-.29 3.7 0 .53-.36.35-.64.37s-.36-.16-.33-.43c.1-1.24.23-2.47.29-3.71 0-.54.33-.41.64-.42s.42.26.33.49zm8.89 1.91l-.1.23c-.49 1.2-1 2.4-1.46 3.61-.15.41-.35.25-.59.16s-.48-.14-.31-.54c.52-1.19 1-2.4 1.48-3.6 0-.13.08-.29.28-.2a2.28 2.28 0 01.7.34z"/><path d="M51.63 31.4a7.8 7.8 0 01-.31 2.28A4.76 4.76 0 0148 37.16a8.39 8.39 0 01-5.31 0A5.11 5.11 0 0139 32.85a8.55 8.55 0 01.33-4.14 4.44 4.44 0 012.4-2.71 8.08 8.08 0 016.55-.21 4.92 4.92 0 013.25 4.29 7.37 7.37 0 01.1 1.32zm-4.31.32a9.89 9.89 0 00-.18-2.29 1.54 1.54 0 00-1.49-1.25 2.09 2.09 0 00-2.09.81 1.71 1.71 0 00-.14.49 9.8 9.8 0 000 3.7c.19.89.52 1.27 1.42 1.41a3 3 0 001.29-.09 1.36 1.36 0 001-1.18c.11-.6.15-1.21.19-1.6zm-19.94 3.41v-1.81c0-.27.07-.37.34-.35a4.09 4.09 0 00.7 0 2.08 2.08 0 011.91.73 4.16 4.16 0 003.93 1 1.08 1.08 0 00.3-.11c.16-.08.3-.18.3-.38a.39.39 0 00-.27-.34 3.41 3.41 0 00-.6-.24c-1.25-.38-2.5-.74-3.74-1.14a4 4 0 01-2.83-2.48 3.53 3.53 0 012.87-4.66 7 7 0 014.8.58c.24.11.59.44.54-.22 0-.18.14-.17.27-.17h2c.24 0 .29.1.29.31v3.4c0 .23-.09.29-.3.28h-1.87a.48.48 0 01-.43-.2 4.68 4.68 0 00-3.91-1.47 1 1 0 00-.53.17c-.32.21-.33.49 0 .7a2.55 2.55 0 00.59.25l3.8 1.12a4.36 4.36 0 012.26 1.48 3.5 3.5 0 01-1.41 5.49A6.89 6.89 0 0131 37c-.17-.07-.34-.16-.5-.24-.52-.24-.53-.24-.57.3 0 .21-.1.26-.29.25h-2c-.24 0-.28-.11-.28-.31.03-.63.02-1.25.02-1.87zm-4.59 2.17h-3.35c-.31 0-.44-.05-.42-.4v-2.09c0-.27.05-.43.35-.38h.05c.43 0 1 .2 1.24-.09s.07-.8.07-1.22v-4.47c0-.32-.08-.43-.41-.42s-1 .21-1.24-.09-.08-.8-.08-1.21v-1.26c0-.22.06-.3.29-.3h7c.24 0 .29.09.29.3v2.29c0 .22-.08.3-.3.29s-.71 0-1.07 0-.35.06-.35.34v5.54c0 .24.07.32.32.31s.71 0 1.07 0 .32.06.32.31v2.19c0 .3-.08.39-.39.39-1.12-.04-2.25-.03-3.39-.03zm3.85 1.41a.49.49 0 01.71.26 9.89 9.89 0 001 1.4.3.3 0 00.46.1 9.19 9.19 0 011.59-.66c.27-.08.37-.19.22-.45a1.36 1.36 0 01-.14-.4c0-.1-.19-.24 0-.3a.33.33 0 01.38.08v.08c.14.23.07.63.38.69a2.21 2.21 0 00.77-.16 13 13 0 012.16-.27c.17 0 .37 0 .34-.24s.12-.19.25-.19.23 0 .22.17.19.26.37.26a9.71 9.71 0 012.39.34c.49.14.75.06.85-.45 0-.17.08-.33.32-.32s.28 0 .21.26-.37.55-.2.77.5.21.76.32.49.19.73.3c.64.29.64.3 1.06-.25.27-.36.51-.73.77-1.11s.19-.31.68-.24a9.1 9.1 0 01-1.25 1.85c-.19.22-.2.35.08.47a1.61 1.61 0 01.28.17c.87.55.87.55 1.65-.17A12.21 12.21 0 0045.55 39a.58.58 0 01.77-.24A13.39 13.39 0 0135 45c-5 .06-8.82-2.17-11.67-6.27a.6.6 0 01.8.27 13.32 13.32 0 002.36 2.56.36.36 0 00.52 0 5.37 5.37 0 01.79-.56c.25-.14.3-.24.09-.48a9.77 9.77 0 01-1.25-1.81zm8.41 2.43v1.31c0 .11 0 .29.13.3.38 0 .77.2 1.15-.11a7.16 7.16 0 001.79-2.4c.11-.21 0-.27-.15-.31a15.58 15.58 0 00-2.63-.38c-.22 0-.3.07-.29.29.01.44 0 .87 0 1.3zm-.47 0v-1.3c0-.22 0-.31-.28-.3a14.82 14.82 0 00-2.67.39c-.1 0-.24 0-.16.21a6 6 0 002.07 2.63 1.1 1.1 0 001-.06c.2-.07.08-.36.08-.55-.03-.33-.04-.67-.04-1.01zm-2.76 3a13.37 13.37 0 006 0c-1.38-1.14-4.37-1.21-6 .04zM40.74 41a11.86 11.86 0 00-1.86-.78.19.19 0 00-.26.12 7.87 7.87 0 01-2 2.7.94.94 0 00.83.14A9.44 9.44 0 0040.74 41zM28.9 41a9.2 9.2 0 003.34 2.21.77.77 0 00.54-.06c.16-.07.2-.13 0-.25A7.49 7.49 0 0131 40.35c-.09-.19-.2-.2-.37-.14a12.57 12.57 0 00-1.73.79zm8.94 2.55a1 1 0 001.24.31c.56-.25 1.15-.45 1.7-.73A10.66 10.66 0 0042.5 42l-1.1-.7c-.12-.08-.23-.12-.36 0a9.73 9.73 0 01-3.2 2.22zM27.18 42a12.09 12.09 0 003.39 1.83 1 1 0 001.22-.32 10.4 10.4 0 01-1.68-.91 10 10 0 01-1.5-1.25.24.24 0 00-.35-.06 10.56 10.56 0 00-1.08.71zm19.13-18a.56.56 0 01-.78-.24 13.91 13.91 0 00-2.29-2.5.38.38 0 00-.59 0 5.46 5.46 0 01-.82.53c-.23.13-.22.23-.06.42A9.44 9.44 0 0143 24a.49.49 0 01-.69-.26 10 10 0 00-1-1.37.29.29 0 00-.43-.09 9.07 9.07 0 01-1.67.7c-.27.08-.31.2-.18.43a.84.84 0 01.11.3c0 .11.23.27 0 .33s-.37.07-.41-.17c-.1-.67-.48-.62-1-.48a10.44 10.44 0 01-2.3.31c-.16 0-.31 0-.38.23a.23.23 0 01-.42 0c-.06-.32-.27-.25-.45-.26a11.51 11.51 0 01-2.48-.36c-.39-.11-.61-.05-.69.36s-.26.42-.57.31v-.09c.05-.28.36-.59.21-.81s-.52-.23-.79-.34-.7-.28-1-.46-.38-.12-.54.11c-.29.44-.63.85-.9 1.29a.53.53 0 01-.72.3A12.08 12.08 0 0128 22c-.41-.27-.8-.52-1.17-.8-.21-.15-.31 0-.44.08a12.72 12.72 0 00-2.33 2.53.6.6 0 01-.77.25 13.34 13.34 0 0110.88-6.25c5.18-.22 9.16 1.99 12.14 6.19zm-10.78-.76a15.42 15.42 0 002.39-.35c.25-.06.35-.11.21-.39a8.44 8.44 0 00-1.34-2 1.28 1.28 0 00-1.38-.5c-.3.07-.37.16-.36.44v2.23c-.05.5.08.71.48.59zm-1-1.56v-1.33c0-.1 0-.21-.11-.28a1.49 1.49 0 00-1.3.15 7 7 0 00-1.7 2.37c-.08.16-.07.24.13.29a13 13 0 002.71.38c.2 0 .28-.05.27-.26.04-.43.05-.87.05-1.3zm-2.83-3.1a5.22 5.22 0 006.1 0 13.23 13.23 0 00-6.05.02zm5 1.2a7.94 7.94 0 011.92 2.71c.09.19.2.14.34.09l1.5-.61c.28-.1.27-.21.07-.4a9.92 9.92 0 00-2.81-1.89.93.93 0 00-.99.12zm-3.78 0c-.33-.09-.55-.28-.86-.15a9.38 9.38 0 00-3.05 2c-.17.17-.17.26.06.35l1.42.59c.27.12.42.08.55-.22A7.11 7.11 0 0133 19.77zm-1.22-.52c-.64-.49-.64-.49-1.33-.25a12.37 12.37 0 00-2.06.95 7.32 7.32 0 00-1.25.83l1.05.68c.14.09.26.15.41 0a9.79 9.79 0 013.21-2.22zm6.2 0a9.83 9.83 0 013.18 2.21.21.21 0 00.32 0c.36-.24.72-.46 1.13-.72A14.06 14.06 0 0039.12 19a.93.93 0 00-1.19.26zM21.83 48.37a1.7 1.7 0 01-2.08.13 1.74 1.74 0 01-.44-2 1.45 1.45 0 011.39-1 1.41 1.41 0 011.49.82 3.83 3.83 0 01-.27 3.57 1.41 1.41 0 01-1.59.6 1.2 1.2 0 01-1-.9c0-.12-.19-.34.08-.37s.42-.14.5.18a.76.76 0 00.81.62.94.94 0 00.86-.61 3.06 3.06 0 00.25-1.04zm-.08-1.22a.93.93 0 00-1-1c-.57 0-.94.43-1 1.09s.32 1.06 1 1.06 1-.43 1-1.15zm8.52.9a4 4 0 01-.34 1.7 1.43 1.43 0 01-1.35.83 1.37 1.37 0 01-1.34-.84 4.09 4.09 0 010-3.34 1.35 1.35 0 011.33-.85 1.41 1.41 0 011.37.85 4.19 4.19 0 01.33 1.65zm-2.7 0a3.29 3.29 0 00.2 1.32.86.86 0 00.83.62.81.81 0 00.79-.61 4 4 0 000-2.68.82.82 0 00-.83-.63.89.89 0 00-.82.65 3.75 3.75 0 00-.17 1.36zm-1.18 0a3.93 3.93 0 01-.27 1.55 1.45 1.45 0 01-1.43 1 1.41 1.41 0 01-1.39-1 4.28 4.28 0 010-3.05 1.44 1.44 0 011.42-1 1.45 1.45 0 011.42 1 3.83 3.83 0 01.25 1.5zm-.66 0a3.43 3.43 0 00-.24-1.45.83.83 0 00-.76-.53.77.77 0 00-.79.53 3.92 3.92 0 000 2.86.77.77 0 00.75.53.82.82 0 00.8-.53 3.23 3.23 0 00.24-1.38zM43.82 48a3.54 3.54 0 01-.32 1.67 1.42 1.42 0 01-1.37.87 1.38 1.38 0 01-1.35-.89 4.1 4.1 0 010-3.26 1.36 1.36 0 011.35-.88 1.41 1.41 0 011.39.9 3.63 3.63 0 01.3 1.59zm-.66 0a3.2 3.2 0 00-.16-1.3.85.85 0 00-.8-.6.83.83 0 00-.81.59 4 4 0 000 2.73.8.8 0 00.79.6.84.84 0 00.83-.63 3.29 3.29 0 00.15-1.32zm5.84-.49a5.2 5.2 0 01.69-.21 1.6 1.6 0 011.83 1.33 1.63 1.63 0 01-1.35 1.91c-1 .15-1.68-.18-1.91-.92 0-.12-.21-.32 0-.37s.41-.15.55.16a1 1 0 001.33.58 1.13 1.13 0 00.67-1.3 1.07 1.07 0 00-1.71-.63c-.09.06-.15.16-.25.21a.54.54 0 01-.45 0c-.14-.07-.06-.23-.05-.34.09-.65.19-1.29.27-1.94 0-.23.09-.36.37-.35h1.91c.23 0 .32.06.32.31s-.1.31-.33.3H49.5c-.28 0-.4.08-.42.36s-.03.56-.08.9zm-10.81 2.94h-1.35c-.28 0-.34-.1-.3-.35a2.09 2.09 0 011-1.53c.4-.25.81-.47 1.19-.73a.94.94 0 00-.8-1.7.83.83 0 00-.65.82c0 .4-.26.37-.5.33s-.15-.3-.12-.45a1.59 1.59 0 012.08-1.24 1.47 1.47 0 01.39 2.69c-.33.21-.67.39-1 .58a2.42 2.42 0 00-.64.46c-.12.14-.31.28-.22.47s.28.07.43.07h1.81c.2 0 .36 0 .36.28s-.12.3-.34.3c-.44-.01-.89 0-1.34 0zm8.4-2.45v2.14c0 .29-.1.33-.35.33s-.31-.09-.31-.32V47.4c0-.33-.1-.45-.42-.41s-.34 0-.51 0-.24 0-.23-.21 0-.3.19-.31a1 1 0 001.11-.8c0-.17.23-.12.36-.11s.15.17.15.29zM33 48v2.09c0 .27-.08.34-.34.35s-.33-.12-.32-.37v-2.74c0-.32-.1-.41-.4-.38s-.34 0-.51 0-.24-.07-.24-.25 0-.27.23-.27a1 1 0 001-.74c.06-.22.23-.19.38-.17s.14.17.14.28c.06.76.06 1.49.06 2.2zm2-.79c-.06-.28.05-.37.35-.38s.35.15.37.42-.13.34-.39.35-.33-.12-.33-.39zm.71 2.88c.06.29-.06.37-.35.37s-.37-.09-.37-.37.09-.4.4-.4.36.15.32.4zm12 9.41l-.05-.09h.1z" fill="#fcfdfd"/><path class="cls-1" d="M47.32 31.72c0 .39-.08 1-.15 1.6a1.36 1.36 0 01-1 1.18 3 3 0 01-1.29.09c-.9-.14-1.23-.52-1.42-1.41a9.8 9.8 0 010-3.7 1.71 1.71 0 01.14-.49 2.09 2.09 0 012.09-.81 1.54 1.54 0 011.49 1.25 9.89 9.89 0 01.14 2.29zm-12.27 9.42v-1.3c0-.22.07-.3.29-.29a15.58 15.58 0 012.63.38c.19 0 .26.1.15.31a7.16 7.16 0 01-1.79 2.4c-.38.31-.77.15-1.15.11-.17 0-.12-.19-.13-.3zm-.47.01v1c0 .19.12.48-.08.55a1.1 1.1 0 01-1 .06 6 6 0 01-2.07-2.63c-.08-.17.06-.19.16-.21a14.82 14.82 0 012.67-.39c.23 0 .29.08.28.3.03.45.04.88.04 1.32zm-2.76 3.03c1.63-1.25 4.62-1.23 6 0a13.37 13.37 0 01-6 0zM40.74 41a9.44 9.44 0 01-3.26 2.18.94.94 0 01-.83-.14 7.87 7.87 0 002-2.7.19.19 0 01.26-.12 11.86 11.86 0 011.83.78zM28.9 41a12.57 12.57 0 011.77-.76c.17-.06.28-.05.37.14a7.49 7.49 0 001.79 2.52c.15.12.11.18 0 .25a.77.77 0 01-.54.06A9.2 9.2 0 0128.9 41zm8.94 2.52A9.73 9.73 0 0041 41.34c.13-.14.24-.1.36 0l1.1.7a10.66 10.66 0 01-1.72 1.08c-.55.28-1.14.48-1.7.73a1 1 0 01-1.2-.33zM27.18 42a10.56 10.56 0 011.08-.71.24.24 0 01.35.06 10 10 0 001.5 1.25 10.4 10.4 0 001.68.91 1 1 0 01-1.22.32A12.09 12.09 0 0127.18 42zm8.35-18.74c-.4.12-.51-.09-.49-.56v-2.23c0-.28.06-.37.36-.44a1.28 1.28 0 011.38.49 8.44 8.44 0 011.34 2c.14.28 0 .33-.21.39a15.42 15.42 0 01-2.38.35zm-.95-1.56V23c0 .21-.07.27-.27.26a13 13 0 01-2.71-.38c-.2-.05-.21-.13-.13-.29a7 7 0 011.7-2.37 1.49 1.49 0 011.3-.15c.14.07.11.18.11.28zm-2.83-3.1a13.23 13.23 0 016.1 0 5.22 5.22 0 01-6.1 0zm4.98 1.2a.93.93 0 011-.1 9.92 9.92 0 012.81 1.89c.2.19.21.3-.07.4L39 22.6c-.14 0-.25.1-.34-.09a7.94 7.94 0 00-1.93-2.71zM33 19.77a7.11 7.11 0 00-1.88 2.57c-.13.3-.28.34-.55.22L29.1 22c-.23-.09-.23-.18-.06-.35a9.38 9.38 0 013.05-2c.31-.16.53.03.91.12zm-1.27-.52a9.79 9.79 0 00-3.18 2.2c-.15.16-.27.1-.41 0l-1.05-.68a7.32 7.32 0 011.25-.77 12.37 12.37 0 012.06-1c.69-.24.69-.24 1.33.25zm6.2.01a.93.93 0 011.19-.26 14.06 14.06 0 013.44 1.82c-.41.26-.77.48-1.13.72a.21.21 0 01-.32 0 9.83 9.83 0 00-3.18-2.28zM21.75 47.15c0 .72-.34 1.11-1 1.1s-1-.36-1-1.06.38-1.09 1-1.09a.93.93 0 011 1.05zm5.82.93a3.75 3.75 0 01.18-1.33.89.89 0 01.82-.65.82.82 0 01.83.63 4 4 0 010 2.68.81.81 0 01-.79.61.86.86 0 01-.83-.62 3.29 3.29 0 01-.21-1.32zm-1.84 0a3.23 3.23 0 01-.24 1.41.82.82 0 01-.8.53.77.77 0 01-.75-.53 3.92 3.92 0 010-2.86.77.77 0 01.79-.53.83.83 0 01.76.53 3.43 3.43 0 01.24 1.45zm17.43-.01a3.29 3.29 0 01-.2 1.32.84.84 0 01-.83.63.8.8 0 01-.79-.6 4 4 0 010-2.73.83.83 0 01.81-.59.85.85 0 01.8.6 3.2 3.2 0 01.21 1.37z"/></svg>