<svg id="Layer_1" data-name="Layer 1" xmlns="http://www.w3.org/2000/svg" viewBox="0 0 70 70"><defs><style>.cls-1{fill:#216eb5}.cls-2{fill:#d7d8d2}</style></defs><path class="cls-1" d="M2.5 35.62v-1.24a2.9 2.9 0 000-.72 32.54 32.54 0 0122-29.45 32.55 32.55 0 019.5-1.7h2a32.46 32.46 0 0122.68 10.23 32.32 32.32 0 018.75 20.07 2.36 2.36 0 00.07.65v3.13c-.06 0 0 .09 0 .14a32.4 32.4 0 01-10.18 21.89 32.3 32.3 0 01-17.4 8.51 35.84 35.84 0 01-4 .36H34a32.55 32.55 0 01-4.82-.5 32.5 32.5 0 01-19-10.93A32.18 32.18 0 013.5 43a33 33 0 01-1-6.71 2.59 2.59 0 000-.67zm32.66 30.22a29.29 29.29 0 004.06-.28 30.63 30.63 0 0018.16-9.34 29.74 29.74 0 005.91-8.9 30.37 30.37 0 002.34-8.62c.11-1 .19-2 .21-3a30.29 30.29 0 00-.39-5.63c-.16-.93-.35-1.85-.58-2.76a28.12 28.12 0 00-.84-2.7 30.77 30.77 0 00-1.7-3.86 29.11 29.11 0 00-1.8-3 30.87 30.87 0 00-4.32-5.09 31.23 31.23 0 00-5.57-4.21A30.21 30.21 0 0047 6.64a31.57 31.57 0 00-3.65-1.28c-.74-.21-1.49-.39-2.24-.54s-1.72-.3-2.59-.4-1.81-.15-2.71-.19h-1.85a33.4 33.4 0 00-3.86.38c-.73.12-1.47.26-2.19.44-1 .26-2.07.56-3.08.92a29.75 29.75 0 00-3 1.26 30.79 30.79 0 00-9.73 7.35 31.93 31.93 0 00-4.8 7.2 31.08 31.08 0 00-1.86 4.92c-.27 1-.49 2-.67 3a28.53 28.53 0 00-.44 3.91 35.43 35.43 0 000 3.57 32.3 32.3 0 00.58 4.26 29 29 0 001 3.54A30.57 30.57 0 008 49.82a31.8 31.8 0 004.34 6.09c.18.2.42.34.6.52.47.47.94.94 1.43 1.39a31.17 31.17 0 008.28 5.45 30.35 30.35 0 0012.47 2.57z"/><path class="cls-1" d="M35.07 57.25a22.18 22.18 0 1122.15-21.93 22.16 22.16 0 01-22.15 21.93zm-.27-42.71A20.53 20.53 0 1055.57 35 20.54 20.54 0 0034.8 14.54zM51 12.22l-1.5 1.23-1.29 1.05a.17.17 0 01-.24 0c-.18-.13-.44-.2-.53-.37s.06-.42.1-.63c.22-1 .43-1.92.65-2.87a.21.21 0 000-.15l-.41.66c-.45.73-.9 1.45-1.34 2.18-.08.13-.13.16-.26.06s-.45-.18-.48-.34.17-.34.28-.51l1.77-2.89c.14-.23.14-.23.36-.09s.53.34.81.48.18.21.14.37c-.24 1-.47 2-.7 2.95v.17a.44.44 0 00.19-.12l2.28-2a.25.25 0 01.36 0c.29.2.59.38.9.56.1.06.11.1.05.2-.7 1.13-1.4 2.26-2.09 3.4-.06.1-.12.11-.22 0a4.34 4.34 0 00-.46-.28c-.13-.07-.13-.13-.06-.25.56-.89 1.11-1.78 1.65-2.68a1 1 0 00.1-.17zm10.54 18.52a1.19 1.19 0 01.09 1.94 1.09 1.09 0 01.59.69 1 1 0 01-.92 1.48c-.59.07-1.17.11-1.76.17-.13 0-.19 0-.19-.16a2.73 2.73 0 00-.05-.5c0-.17 0-.2.18-.22.56 0 1.11-.09 1.67-.17a.51.51 0 00.49-.69.52.52 0 00-.57-.42 11.49 11.49 0 00-1.18.09l-.58.06c-.1 0-.16 0-.16-.13a3.53 3.53 0 000-.56c0-.15 0-.18.17-.19L60.9 32c.44 0 .63-.31.54-.69a.53.53 0 00-.55-.43 11 11 0 00-1.28.1l-.5.05C59 31 59 31 59 30.88s0-.41-.06-.62 0-.13.12-.14c.89-.08 1.79-.15 2.69-.28.12 0 .16 0 .17.15s0 .2 0 .3c.08.39.08.39-.38.45zM8.73 29.46a1.17 1.17 0 01-.11-1.27.8.8 0 01.55-.51c.12 0 .13-.05.06-.15a1.23 1.23 0 01-.07-1.33.88.88 0 011-.51c.67.12 1.32.34 2 .5.09 0 .09.08.07.16s-.11.38-.16.58-.09.13-.19.1c-.57-.15-1.14-.31-1.71-.44a.47.47 0 00-.63.34.52.52 0 00.31.71 8.25 8.25 0 001.2.35 5.44 5.44 0 00.54.15c.11 0 .14.07.11.18a5.12 5.12 0 00-.15.56c0 .12-.09.13-.2.1-.55-.15-1.11-.3-1.66-.43-.36-.08-.58 0-.67.34a.53.53 0 00.34.71 10.94 10.94 0 001.38.41h.21c.26.08.26.08.19.32l-.12.47c0 .09 0 .13-.16.1q-1.32-.36-2.64-.69c-.1 0-.13-.06-.09-.17l.06-.23c0-.14 0-.31.13-.41s.26.1.41.06zM23 13.88a1.29 1.29 0 01-1.25-.59c-.06-.09-.07-.14.05-.19s.39-.21.58-.32a.13.13 0 01.2 0 .6.6 0 00.71.26.9.9 0 00.7-.64.44.44 0 00-.45-.58 7.45 7.45 0 00-1.05.19 4.07 4.07 0 01-.61.06 1.1 1.1 0 01-1-1.66 2.3 2.3 0 011.83-1.1 1 1 0 011 .54v.16l-.64.34h-.16a.72.72 0 00-1.19.26.42.42 0 00.41.61 8.86 8.86 0 001.15-.17l.42-.05a1.14 1.14 0 011 1.72 2.42 2.42 0 01-1.7 1.16zM59.78 24.7c.38-.14.38-.14.52.19s.2.43-.24.61l-1.82.8a2.2 2.2 0 01-1.1.23 1 1 0 01-.67-.33 2.28 2.28 0 01-.64-1.56.78.78 0 01.42-.71c.08 0 .14-.05.18.06a2.43 2.43 0 00.16.37c.08.15.12.26-.05.42s-.08.41 0 .61a.57.57 0 00.55.38 2 2 0 00.76-.26 1.27 1.27 0 01-.56-2.08 2.1 2.1 0 011-.54 1.27 1.27 0 011.61 1 1.2 1.2 0 01-.12.81zm-1.45.53a1.51 1.51 0 001-.47.58.58 0 00.11-.7.59.59 0 00-.62-.34 1.52 1.52 0 00-1 .41.59.59 0 00-.16.71.66.66 0 00.67.39z"/><path class="cls-1" d="M26.5 57.21a2.3 2.3 0 011.6.87 1.2 1.2 0 01.2 1.18c0 .13-.09.19-.23.1a1.68 1.68 0 00-.3-.15c-.23-.11-.42-.18-.37-.54s-.46-.74-.89-.69a.94.94 0 00-.45.16 2.23 2.23 0 00-1 1.86.91.91 0 00.85.89.63.63 0 00.57-.23c.08-.09.14-.09.24 0s.38.21.58.3.14.09.05.2a1.28 1.28 0 01-1.12.53 2.38 2.38 0 01-1.74-.84 1.58 1.58 0 01-.35-1.37 3.06 3.06 0 011-1.78 1.81 1.81 0 011.36-.49zm19.12 1.58c-.2-.42-.38-.84-.58-1.25-.07-.15 0-.21.11-.26l.45-.21c.12-.07.18 0 .24.08.49 1.08 1 2.16 1.48 3.24a2.7 2.7 0 00.17.34c.09.12 0 .17-.08.22a3.1 3.1 0 00-.45.21c-.15.08-.23.06-.29-.1s0-.07-.06-.11a1.24 1.24 0 01-2.2.3 2.09 2.09 0 01-.46-1.36 1.23 1.23 0 011.55-1.15h.14zm.66 1.59a1.45 1.45 0 00-.49-1 .63.63 0 00-.74-.11.56.56 0 00-.31.64 1.77 1.77 0 00.44 1 .59.59 0 00.71.19c.28-.1.4-.33.39-.72zm9.85-37.97a1.3 1.3 0 01-1-1.06.83.83 0 01.36-.84.86.86 0 01.92-.09 1.63 1.63 0 01.46.36 4 4 0 01.47.62c.14.22.14.22.35.05a.41.41 0 00.07-.69.35.35 0 00-.45-.1c-.09.05-.14 0-.19-.06s-.21-.34-.32-.51 0-.16.07-.21a1 1 0 011.08.32 2.92 2.92 0 01.52.79.88.88 0 01-.3 1.16c-.27.2-.56.37-.84.56a7.89 7.89 0 00-.82.56c-.12.1-.17.07-.23 0a1.83 1.83 0 00-.16-.26c-.23-.33-.23-.33.01-.6zm.28-.3a1.34 1.34 0 00.58-.22c.07 0 .06-.08 0-.13a1.61 1.61 0 00-.5-.57.46.46 0 00-.66.14.58.58 0 00.58.78zm-4.49-4.99a1.12 1.12 0 01-1.09-.42.9.9 0 011-1.48 2.86 2.86 0 011 .65c.13.13.2.1.29 0 .22-.31.21-.53-.06-.72a.35.35 0 00-.48 0 .14.14 0 01-.22 0 5.82 5.82 0 00-.45-.4c-.11-.08-.08-.14 0-.21a.86.86 0 01.83-.13 2.35 2.35 0 011.14.92.83.83 0 010 1 5.61 5.61 0 01-.59.7c-.26.31-.54.6-.77.93-.06.09-.11.09-.18 0l-.34-.27c-.24-.24-.24-.24-.08-.57zm-.11-1.3a.45.45 0 00-.43.6.6.6 0 00.75.33 1.56 1.56 0 00.46-.35v-.12a1.42 1.42 0 00-.78-.46zM13 24a1.23 1.23 0 01-.28 1.41.78.78 0 01-.93.21.83.83 0 01-.59-.78 2.84 2.84 0 01.28-1.18c0-.11.22-.22 0-.34a.52.52 0 00-.65 0 .45.45 0 000 .7c.08.05.09.09.05.18s-.18.37-.26.56-.11.11-.21.05a.9.9 0 01-.33-1 2.33 2.33 0 01.45-1 .82.82 0 011-.34 8.58 8.58 0 011.12.48 8 8 0 00.85.35c.13 0 .13.1.08.2a3.17 3.17 0 00-.19.42c-.06.16-.15.21-.31.14zm-1.24.28a.47.47 0 00.3.51.4.4 0 00.46-.1.59.59 0 00.05-.78 1.29 1.29 0 00-.47-.33h-.12a2 2 0 00-.21.67zm5.67-6.47a1.84 1.84 0 01-1.67 1.72 1.7 1.7 0 01-1.6-1.59 1.85 1.85 0 011.66-1.74 1.74 1.74 0 011.61 1.61zm-.69.29a.75.75 0 00-.07-.24 1.69 1.69 0 00-1-.86.64.64 0 00-.78.87 1.68 1.68 0 001 .89.66.66 0 00.85-.66zM60 38.47a1.07 1.07 0 01-.88-.8 2.12 2.12 0 010-1.17 1.23 1.23 0 011.13-1 2.27 2.27 0 011 .1 1.36 1.36 0 01.94 1.54 1.39 1.39 0 01-1.72 1.35c-.13 0-.11-.09-.11-.17 0-.58.09-1.16.12-1.74 0-.27 0-.28-.26-.24a.65.65 0 00-.62.77.48.48 0 00.34.43c.08 0 .13 0 .12.15s-.01.53-.06.78zm1-1.06c0 .33 0 .33.23.3a.58.58 0 00.52-.63.66.66 0 00-.58-.63c-.1 0-.1 0-.1.1-.07.29-.07.59-.07.86zm.34-9.41a1.27 1.27 0 01-.84 1.21c-.48.21-.48.21-.63-.28l-.43-1.45c0-.13-.09-.16-.21-.1a.67.67 0 00-.43.94.48.48 0 00.48.33c.12 0 .17 0 .2.14a5.7 5.7 0 00.16.55c0 .09 0 .11-.08.12a1 1 0 01-.86-.3 1.9 1.9 0 01-.5-1.7 1.28 1.28 0 01.87-.92 2.12 2.12 0 011-.16 1.47 1.47 0 011.29 1.37 1.1 1.1 0 01-.02.25zm-1.21-.84c-.07.05-.28-.08-.21.16s.2.66.3 1c0 .09.06.11.15.07a.59.59 0 00.42-.65.64.64 0 00-.66-.59zM25 10.64a1.47 1.47 0 011.25-1.5 1.4 1.4 0 011.71 1.12c0 .13-.05.14-.12.16-.56.2-1.13.41-1.7.6-.17.06-.16.13-.09.26a.67.67 0 001 .33.49.49 0 00.26-.48c0-.14 0-.17.15-.21a4.75 4.75 0 00.49-.17c.12-.06.16 0 .17.1a1 1 0 01-.31.88 2 2 0 01-1.44.56 1.21 1.21 0 01-1-.57 2.1 2.1 0 01-.37-1.08zm.76-.33c0 .27 0 .3.29.21l.83-.29c.14-.05.14-.1.08-.22a.59.59 0 00-.66-.34.67.67 0 00-.56.64zm15.12 50.88a1.46 1.46 0 011.5-1.43 1.31 1.31 0 011.42 1.07c.11.33.11.26-.18.34l-1.62.49c-.11 0-.13.07-.09.18a.69.69 0 001 .45.48.48 0 00.31-.47c0-.14 0-.17.16-.2a3.79 3.79 0 00.48-.14c.16-.06.19 0 .19.14a1 1 0 01-.42.87 1.94 1.94 0 01-1.63.41 1.18 1.18 0 01-.92-.71 2.16 2.16 0 01-.2-1zm.78-.23c0 .23 0 .25.23.18l.87-.24c.13 0 .18-.07.11-.22a.58.58 0 00-.65-.37.63.63 0 00-.56.69zM9.22 33.53a1.54 1.54 0 011.6 1.93 1.34 1.34 0 01-1 1.22 1.69 1.69 0 01-1.74-.36 1.78 1.78 0 01.39-2.64 1.58 1.58 0 01.75-.15zm.07 2.33a1.57 1.57 0 00.69-.15.63.63 0 00.34-.56.6.6 0 00-.34-.57 1.59 1.59 0 00-1.38 0 .6.6 0 00-.37.61.61.61 0 00.43.57 1.61 1.61 0 00.63.1zM30.8 61.09a2.59 2.59 0 01-.1.62c0 .14-.09.18-.23.13l-1.71-.53c-.16-.05-.2 0-.22.15a.67.67 0 00.55.85.47.47 0 00.53-.22c.07-.12.14-.12.25-.08l.48.14c.13 0 .17.08.08.21a1 1 0 01-.74.5 2 2 0 01-1.5-.4 1.18 1.18 0 01-.45-1.18 1.76 1.76 0 01.89-1.46 1.62 1.62 0 012.14 1c.02.06.02.18.03.27zm-.8-.21a.57.57 0 00-.51-.61.65.65 0 00-.73.4c0 .1 0 .13.09.15l.86.26c.29.08.29.06.29-.2zM17.26 14.83a1.34 1.34 0 01.61-1 .93.93 0 011.34.15c.42.48.83 1 1.24 1.47.07.08.06.13 0 .19A4.82 4.82 0 0020 16c-.1.09-.16.09-.25 0-.31-.38-.62-.75-.94-1.12a1.88 1.88 0 00-.24-.25.47.47 0 00-.62-.08.54.54 0 00-.25.63 1.36 1.36 0 00.28.53c.29.35.58.7.88 1 .08.1.1.16 0 .24a3.19 3.19 0 00-.4.33c-.11.11-.17.1-.27 0l-1.51-1.8c-.09-.11-.27-.21-.26-.33s.21-.21.32-.31.19-.23.3-.21.14.11.22.2zm44.03 25.39a1.15 1.15 0 01.28 1 1 1 0 01-1.29.92l-1.79-.38c-.1 0-.14-.05-.11-.17a3.39 3.39 0 00.13-.57c0-.12.06-.15.18-.12l1.47.32h.31a.48.48 0 00.53-.32.53.53 0 00-.18-.66 1.31 1.31 0 00-.57-.24L59 39.71c-.12 0-.17-.05-.13-.19s.09-.38.13-.57.06-.12.16-.1l2.66.57c.12 0 .12.07.1.16s-.08.34-.11.51-.06.23-.23.16a.74.74 0 00-.29-.03zm-6.04-22.81a1.18 1.18 0 011 .55 1 1 0 01-.14 1.35l-.94.79c-.18.15-.36.29-.53.45s-.13.06-.19 0a5.9 5.9 0 00-.39-.46c-.09-.09-.06-.14 0-.21l1.12-.94a1.48 1.48 0 00.28-.28.44.44 0 00.05-.6.51.51 0 00-.6-.25 1.39 1.39 0 00-.56.3l-1 .86c-.11.1-.16.09-.24 0a3.54 3.54 0 00-.35-.42c-.1-.1-.07-.15 0-.23l1.81-1.51c.12-.1.21-.29.35-.26s.2.2.29.31c.32.24.32.24.04.55zM33.88 10.4c-.07 0-.08 0-.11.07a1.26 1.26 0 01-1.38.36.93.93 0 01-.6-.87c-.05-.63-.09-1.25-.14-1.88 0-.11 0-.14.12-.15a5.46 5.46 0 00.58 0c.12 0 .16 0 .17.15 0 .5.07 1 .11 1.52a1.35 1.35 0 000 .29c.06.28.21.42.45.43a.57.57 0 00.62-.37 1.31 1.31 0 000-.48c0-.49-.06-1-.1-1.48 0-.13 0-.17.14-.17h.56c.13 0 .16 0 .17.15.06.9.13 1.8.21 2.69 0 .11 0 .13-.11.14h-.64c-.08 0-.11 0-.12-.09a2.48 2.48 0 00.07-.31zM9 41.74a1.17 1.17 0 01-.69-1A.9.9 0 019 39.66c.64-.19 1.28-.33 1.92-.49.1 0 .13 0 .15.1a4.39 4.39 0 00.13.52c0 .16 0 .21-.14.25-.49.11-1 .24-1.46.36a1.82 1.82 0 00-.3.11.48.48 0 00-.3.49.55.55 0 00.44.5 1.3 1.3 0 00.62 0l1.3-.32c.14 0 .21 0 .23.14a.52.52 0 000 .11c0 .18.19.4.1.53s-.34.12-.52.17L9 42.67c-.11 0-.17 0-.19-.1a2.49 2.49 0 00-.12-.47c-.06-.17 0-.27.16-.28a.24.24 0 00.15-.08zM44.69 9.47l-1.3 1.62-1.39 1.7a.22.22 0 01-.3.09c-.19-.07-.39-.12-.61-.18.22-.28.42-.53.64-.78a.4.4 0 00.1-.36l-.39-2.8c0-.25 0-.25.21-.18s.36.12.55.16a.18.18 0 01.16.21l.12 2.12c.09 0 .1-.08.13-.12l1.13-1.59a.2.2 0 01.26-.09zm-16.44.28a1.47 1.47 0 011.33-1.53 1.84 1.84 0 01.62 0 1.06 1.06 0 01.8.68c.05.1 0 .14-.08.16a5.63 5.63 0 00-.59.14c-.1 0-.13 0-.17-.1a.49.49 0 00-.54-.36.57.57 0 00-.52.5 1.91 1.91 0 00.3 1.32.54.54 0 00.69.21.48.48 0 00.31-.58c0-.11 0-.16.12-.18s.42-.09.63-.14.12 0 .13.1a1 1 0 01-.27.86 1.82 1.82 0 01-1.76.48 1.44 1.44 0 01-1-1.38 1.53 1.53 0 010-.18zm10.5 49.54h.27a2.52 2.52 0 01.07.49h-.24c-.47 0-.48.27-.41.67 0 .09.08.08.14.07h.43c.09 0 .12 0 .13.1.07.46.08.47-.39.5-.18 0-.25.06-.22.26.08.67.14 1.34.22 2 0 .14 0 .18-.16.18a4.78 4.78 0 00-.53.06c-.14 0-.17 0-.18-.15-.07-.69-.16-1.38-.22-2.07 0-.13 0-.17-.18-.15-.43.06-.43 0-.47-.39 0-.1 0-.15.12-.16s.32 0 .41-.06 0-.26 0-.4a.89.89 0 01.83-1zM8.24 37.06c.13-.05.18 0 .19.16s0 .22 0 .33 0 .17.18.15c.69-.08 1.38-.16 2.07-.26.12 0 .18 0 .18.14a5 5 0 00.07.56c0 .12 0 .16-.14.18l-2 .23c-.18 0-.27.08-.2.27v.1c.06.2 0 .26-.23.28s-.34 0-.36-.29-.09-.26-.29-.23a.92.92 0 01-1.17-1v-.06c0-.43 0-.43.39-.49.13 0 .16 0 .16.14v.1a.46.46 0 00.71.38v-.31c.04-.35.04-.35.44-.38zM14 22.46a1.11 1.11 0 01-.43-.15l-1.3-.8c-.1-.07-.16-.09-.24 0-.21.36-.21.35-.57.14-.11-.07-.13-.12-.05-.23s.19-.23.18-.34-.19-.15-.3-.21a.15.15 0 01-.07-.17c0-.22.08-.44.11-.67s.06-.1.13-.06l.49.31c.09.06.14.05.19 0s.16-.24.22-.36.12-.11.21-.05c.37.22.37.21.15.57a.56.56 0 01-.05.08c-.1.12-.09.19.05.28.36.2.7.42 1.05.63s.46.16.62-.17.15-.18.3-.08.3.18.14.49a2.36 2.36 0 01-.4.59.64.64 0 01-.43.2zm44.45 20.16a1.69 1.69 0 01.48.12l1.29.45c.1 0 .16 0 .18-.09v-.09c.1-.31.1-.31.4-.21s.25.08.16.34c-.09.18-.06.28.15.31a.27.27 0 01.25.33 4.53 4.53 0 000 .52c0 .13 0 .14-.15.1l-.51-.17c-.09 0-.14 0-.17.07s-.1.28-.14.42-.07.11-.17.08c-.43-.14-.43-.13-.28-.55s.1-.25-.17-.35l-1.06-.37c-.37-.12-.51-.06-.59.32 0 .18-.11.19-.25.13-.36-.13-.36-.13-.26-.49a3.1 3.1 0 01.23-.6.6.6 0 01.61-.27zM34.83 63.79a2 2 0 01-.53 0 .58.58 0 01-.5-.63c0-.53.05-1.07.1-1.6 0-.19 0-.25-.21-.26-.41 0-.33 0-.33-.36 0-.2.08-.25.27-.22s.32 0 .35-.29c0-.13 0-.2.18-.23a5.05 5.05 0 00.55-.18c.11 0 .16 0 .14.1s0 .35 0 .52 0 .19.15.19a1.11 1.11 0 01.26 0c.27 0 .27 0 .26.29s0 .31-.32.29-.39 0-.43.34 0 .69-.07 1 .09.49.44.47.23.06.21.23c-.07.35-.07.35-.52.34zm5.6-52.4a2.7 2.7 0 01-.72-.16.55.55 0 01-.42-.64c.05-.42.14-.83.22-1.24a2.32 2.32 0 01.07-.35c.07-.17 0-.24-.17-.27-.34 0-.33-.06-.28-.39s.08-.27.27-.19c.29 0 .3.06.34-.23a.26.26 0 01.26-.27 3.06 3.06 0 00.51-.1c.16 0 .18 0 .15.16s-.07.34-.11.51 0 .13.1.15l.43.08c.1 0 .14 0 .12.15-.07.45-.07.45-.52.36-.26-.05-.26-.05-.31.21l-.21 1.12c-.08.37 0 .51.4.53.18 0 .2.08.16.22a.9.9 0 000 .16c-.03.2-.03.2-.29.19zM11.92 42.64c.08 0 .09 0 .1.08.08.23.16.45.25.68s-.06.13-.13.16l-2.94 1-.75.27c-.13.06-.2 0-.24-.11a5.31 5.31 0 00-.2-.56c0-.12 0-.17.1-.21l2.22-.79 1.45-.52zM8.4 32.05a1.07 1.07 0 01-.38-1c0-.09 0-.15.15-.12h.12c.15 0 .34 0 .45.06s0 .27 0 .41a.62.62 0 00.57.64c.47.08.95.12 1.43.16.15 0 .18.06.16.19a5.62 5.62 0 00-.06.56c0 .11 0 .14-.14.13l-2-.2h-.66c-.11 0-.15-.05-.13-.16s0-.35 0-.52.09-.2.21-.2zm23.65 28.88a1 1 0 01.94-.35c.11 0 .2.05.14.19s0 .07 0 .1a.93.93 0 01-.09.42c-.09.14-.26 0-.4 0a.64.64 0 00-.71.54c-.1.44-.17.88-.24 1.32 0 .17-.06.29-.28.21a1.49 1.49 0 00-.43-.08c-.17 0-.19-.08-.17-.23.13-.71.26-1.43.38-2.15 0-.15 0-.3.06-.45s0-.16.16-.13a3.33 3.33 0 00.55.1c.12 0 .15.06.13.17a.72.72 0 00-.04.34zm4.27-52.61a1 1 0 01.94-.49c.11 0 .16 0 .14.16s0 .33 0 .5 0 .11-.12.1c-.79-.09-.94.34-1 .9v1.12c0 .15 0 .19-.2.18a5.25 5.25 0 00-.56 0c-.11 0-.13 0-.12-.15 0-.9.11-1.8.1-2.7 0-.12.05-.15.16-.14a4.89 4.89 0 00.54 0c.12 0 .17 0 .16.16s-.04.2-.04.36zM13.23 18.69l.12.08 2.14 1.54c.13.09.13.15 0 .26s-.22.28-.31.42-.14.12-.24 0l-2.15-1.55c-.1-.07-.13-.13-.05-.24s.23-.31.35-.46.08-.05.14-.05zM36.75 63v.62c0 .21 0 .15-.12.14-.23 0-.52.09-.66 0s0-.42-.06-.65c0-.7 0-1.41-.07-2.12 0-.16.05-.2.19-.19a3.53 3.53 0 00.46 0c.2 0 .23.07.23.23v2zm4.09.16c0 .12 0 .13-.09.14l-.63.12c-.1 0-.13 0-.15-.11q-.22-1.32-.48-2.64c0-.15 0-.2.16-.21l.55-.1c.07 0 .12 0 .14.08.16.91.33 1.83.5 2.72zM38 7.93l.65.08c.09 0 .11 0 .1.13-.12.91-.23 1.83-.33 2.74 0 .09-.05.11-.13.1s-.42-.06-.64-.07-.1-.09-.09-.17c.09-.75.17-1.49.26-2.23 0-.15 0-.29.06-.44s-.01-.17.12-.14zm-25.78 10l.48.36c.05 0 0 .07 0 .1-.13.19-.27.37-.39.55s-.12.09-.2 0-.37-.2-.4-.33.17-.29.27-.44l.15-.21a.1.1 0 01.09-.03zM37.93 7.14a1.17 1.17 0 000-.29c0-.19.09-.22.25-.19a5.17 5.17 0 00.55.07c.11 0 .14 0 .12.15s0 .4-.1.51-.32 0-.49 0h-.24c-.1-.07-.1-.07-.09-.25zM40 59.09q.1 0 .12.09c.14.55.14.55-.41.65-.38.07-.38.07-.45-.31s-.07-.31.26-.37l.43-.08zm-3.8 1.11c-.42 0-.42 0-.45-.4s0-.29.28-.3h.48c.1 0 .15 0 .14.13v.08c.01.46.01.46-.45.49z"/><path class="cls-2" d="M34.8 14.54A20.53 20.53 0 1114.53 35.8 20.52 20.52 0 0134.8 14.54zm-4.33 31.88l-.25.52a8.36 8.36 0 00-.77 2.76c0 .19 0 .24.21.23h.94c.13 0 .2 0 .2-.18a8.42 8.42 0 01.31-1.85 5.53 5.53 0 01.42-1.18l.09.05c.52.14 1.06.22 1.59.32a10.75 10.75 0 00.18 1.25A2.06 2.06 0 0034.83 50a2.19 2.19 0 001.89-.28 2.34 2.34 0 00.89-1.47 6 6 0 00.14-1.27.43.43 0 00.25 0 6.14 6.14 0 00.13 1.21 2.1 2.1 0 001.46 1.8 2.21 2.21 0 001.9-.25 2.41 2.41 0 00.94-1.62 6.28 6.28 0 00-.09-2.86 3.08 3.08 0 00.74-.44 15.54 15.54 0 002.61-2.32c.41-.47.78-1 1.14-1.47 0-.06.12-.12 0-.17a.59.59 0 00-.6.14 12.77 12.77 0 01-2.74 2.86c-.06 0-.11.08-.19 0a9.71 9.71 0 00-1-.64c-.13-.07-.13-.13-.05-.24A11.7 11.7 0 0043 42a9.74 9.74 0 00.6-1c.06-.13 0-.18-.12-.19a.48.48 0 00-.54.3 10.3 10.3 0 01-1.13 1.6.23.23 0 01-.31.09 14 14 0 00-1.87-.69c-.22-.07-.23-.1-.14-.31s.2-.51.29-.77c0-.06.08-.13 0-.2a.44.44 0 00-.53.15l-.2.54c-.17.39-.18.4-.6.3a21.1 21.1 0 00-2.5-.32c-.5 0-.5 0-.53-.5v-.08a.14.14 0 00-.11-.11c-.26-.07-.37 0-.37.28a.65.65 0 000 .14c0 .21-.06.27-.26.27a16.68 16.68 0 00-2 .17c-.33.05-.66.1-1 .17-.12 0-.24 0-.29-.13a4.86 4.86 0 01-.25-.63.33.33 0 00-.4-.28c-.23 0-.25 0-.16.26s.21.52.31.78 0 .2-.13.24a10.3 10.3 0 00-1.95.7.18.18 0 01-.25-.06 10.89 10.89 0 01-1.15-1.63.46.46 0 00-.49-.29c-.21 0-.24.05-.13.24A12.68 12.68 0 0028 42.87c.14.17.13.19-.06.3a5.41 5.41 0 00-1 .64l-.4-.13a.44.44 0 00-.18-.23A13.16 13.16 0 0124.13 41a.42.42 0 00-.44-.2c-.07 0-.17 0-.22.05s0 .16.08.23a15.44 15.44 0 002.05 2.37c.06.06.15.09.18.19a2.16 2.16 0 00-1 .33 2.35 2.35 0 00-1 2c0 .12 0 .16.17.16h.86c.15 0 .2 0 .21-.19a1.73 1.73 0 01.15-.68.88.88 0 011.12-.5 1 1 0 01.44 1.4 1.94 1.94 0 01-.6.61A14.36 14.36 0 0024.5 48a2.5 2.5 0 00-.86 1.75c0 .12 0 .2.17.2h4.21c.13 0 .17-.06.16-.18s0-.44 0-.66-.05-.26-.25-.25h-2.58c-.03 0 .06-.11.1-.16a5.91 5.91 0 011.33-1 2.33 2.33 0 001.34-2.29 15.54 15.54 0 002.35 1.01zm22.27-13.25a9.13 9.13 0 000-1 8.62 8.62 0 00-.21-1 6.16 6.16 0 00-1.84-3 6.24 6.24 0 00-3.1-1.46 9.69 9.69 0 00-1.94-.13 6.79 6.79 0 00-2.19.4A6.26 6.26 0 0040 29.79a6.37 6.37 0 00-.82 2.91 7.59 7.59 0 00.59 3.36A6 6 0 0042 38.69a6.55 6.55 0 003.12 1.07 8.41 8.41 0 003.31-.32 6 6 0 002.9-1.88A6.08 6.08 0 0052.56 35a5.74 5.74 0 00.18-1.83zm-25.53 4v2c0 .18.05.24.23.24h2.24c.17 0 .23 0 .23-.22v-1.13c0-.02.06 0 .09 0l.31.26a5.16 5.16 0 002.59 1.2 6 6 0 002.94-.19 4.6 4.6 0 001.84-1.1 3.63 3.63 0 001.14-3.19 3.37 3.37 0 00-1.2-2.04 5.55 5.55 0 00-2.1-1.09 10.09 10.09 0 00-1.88-.37 11.49 11.49 0 01-1.85-.29 1.89 1.89 0 01-.95-.49 1.2 1.2 0 01-.3-1.19 1.1 1.1 0 01.85-.72 4.68 4.68 0 011.49-.12 3.07 3.07 0 012.23 1 4.72 4.72 0 01.71 1c.08.13.15.25.33.25h2.17c.15 0 .21-.07.21-.22V27c0-.16-.06-.21-.21-.21h-2.19c-.15 0-.22.05-.21.21s0 .6 0 .9v.13c0 .02-.1 0-.13-.06a5.47 5.47 0 00-.58-.5 4.71 4.71 0 00-1.84-.78 6.28 6.28 0 00-2.66.05A4.83 4.83 0 0028 28.39a3.08 3.08 0 00-.65 1.49A2.8 2.8 0 0028 32a4.86 4.86 0 002.82 1.89 21.44 21.44 0 002.65.4 6 6 0 011.63.36 1.26 1.26 0 01.04 2.35 3.41 3.41 0 01-1.22.29A3.84 3.84 0 0131.7 37a3.49 3.49 0 01-1.7-1.76.42.42 0 00-.4-.24h-2.14c-.2 0-.25.06-.25.25.01.64 0 1.29 0 1.95zm-4.83 2.24h3.53c.19 0 .27 0 .27-.25v-2c0-.17-.06-.24-.23-.23h-1.77c-.33 0-.33 0-.33-.33v-6.9c0-.36 0-.37.38-.37h1.69c.19 0 .26 0 .26-.25v-2c0-.25 0-.27-.26-.27h-7c-.2 0-.25.08-.25.26v1.95c0 .29 0 .29.29.29h1.75c.27 0 .29 0 .29.26v7.08c0 .19-.07.25-.25.24h-1.88c-.25 0-.28 0-.28.28v2c0 .2.05.26.26.26zm12.68-20.36c-.56.05-1.27.08-2 .19a15.33 15.33 0 00-2.11.48 13.7 13.7 0 00-2.47 1 14.08 14.08 0 00-3.11 2.3 13.84 13.84 0 00-1.1 1.2 10.6 10.6 0 00-.81 1.09c0 .05-.11.11 0 .16a.6.6 0 00.61-.16 14.11 14.11 0 012.68-2.83.16.16 0 01.23 0l1 .63c.11.06.14.11 0 .22-.23.3-.46.61-.68.92a7.59 7.59 0 00-.67 1.09s-.08.09 0 .14a.63.63 0 00.6-.15 11.52 11.52 0 011.21-1.74.25.25 0 01.35-.08 12.79 12.79 0 001.91.69c.13 0 .17.08.11.21-.12.28-.23.57-.34.85 0 .07-.08.14 0 .2a.44.44 0 00.54-.14l.27-.71a.25.25 0 01.32-.19 16.65 16.65 0 002.9.35c.32 0 .34 0 .34.35v.24a.11.11 0 00.11.12c.27.07.37 0 .37-.27v-.17c0-.25 0-.26.28-.27a12.92 12.92 0 001.75-.15l1.28-.22a.16.16 0 01.21.1 6.86 6.86 0 01.27.71.34.34 0 00.41.28c.22 0 .23 0 .15-.23s-.21-.55-.32-.83c-.06-.13 0-.21.12-.25a12.56 12.56 0 001.86-.68.29.29 0 01.39.11 11.85 11.85 0 011.2 1.7.3.3 0 00.3.18c.1 0 .24 0 .3-.06s-.05-.19-.1-.28a14.73 14.73 0 00-1.28-1.84c-.08-.1-.08-.15 0-.22.35-.21.71-.41 1.05-.65a.13.13 0 01.18 0c.26.21.53.42.78.65a13.1 13.1 0 011.88 2.13.48.48 0 00.52.25h.2c.04 0 0-.13-.07-.19a.1.1 0 000-.05A14.53 14.53 0 0044.9 23c-.45-.42-.91-.83-1.38-1.21a8.57 8.57 0 00-.79-.55 13.48 13.48 0 00-3.11-1.49 12.38 12.38 0 00-2.6-.59 16 16 0 00-1.96-.11zm11 27.8v-2.89c0-.15 0-.21-.19-.2a3.64 3.64 0 01-.66 0c-.13 0-.19 0-.21.17a1.15 1.15 0 01-.46.7 1.73 1.73 0 01-1.1.34c-.15 0-.2.05-.2.2a5.61 5.61 0 010 .58c0 .14 0 .19.18.19h1.1c.2 0 .26 0 .26.25v3.53c0 .15 0 .21.2.21a6.31 6.31 0 01.87 0c.17 0 .22-.05.22-.23-.01-.96 0-1.91 0-2.85z"/><path class="cls-1" d="M52.74 33.17a5.74 5.74 0 01-.18 1.83 6.08 6.08 0 01-1.26 2.54 6 6 0 01-2.9 1.88 8.41 8.41 0 01-3.31.32A6.55 6.55 0 0142 38.69a6 6 0 01-2.2-2.63 7.59 7.59 0 01-.59-3.36 6.37 6.37 0 01.79-2.91 6.26 6.26 0 013.42-2.88 6.79 6.79 0 012.19-.4 9.69 9.69 0 011.94.13 6.24 6.24 0 013.1 1.46 6.16 6.16 0 011.84 3 8.62 8.62 0 01.21 1 9.13 9.13 0 01.04 1.07zm-7 4a3.43 3.43 0 002-.53 2.52 2.52 0 00.7-.68 3.11 3.11 0 00.56-1.68 14.44 14.44 0 000-2.08 4.19 4.19 0 00-.47-1.69 2.42 2.42 0 00-1.27-1.13 3.65 3.65 0 00-2.17-.08 2.45 2.45 0 00-1.47 1.07 4.28 4.28 0 00-.62 2.22 8.82 8.82 0 00.18 2.61 2.15 2.15 0 00.51 1 3.05 3.05 0 002.06.94zm-18.53.03v-2c0-.19.05-.26.25-.25h2.14a.42.42 0 01.42.27A3.49 3.49 0 0031.7 37a3.84 3.84 0 002.22.34 3.41 3.41 0 001.22-.34 1.26 1.26 0 00-.09-2.38 6 6 0 00-1.63-.36 21.44 21.44 0 01-2.65-.4A4.86 4.86 0 0128 32a2.8 2.8 0 01-.56-2.09 3.08 3.08 0 01.56-1.52 4.83 4.83 0 012.64-1.61 6.28 6.28 0 012.66-.05 4.71 4.71 0 011.84.78 5.47 5.47 0 01.58.5s.06.1.13.06 0-.08 0-.13v-.9c0-.3.06-.21.21-.21h2.19c.15 0 .21.05.21.21v3.71c0 .15-.06.22-.21.22h-2.1c-.18 0-.25-.12-.33-.25a4.72 4.72 0 00-.71-1 3.07 3.07 0 00-2.23-1 4.68 4.68 0 00-1.49.12 1.1 1.1 0 00-.85.72 1.2 1.2 0 00.3 1.19 1.89 1.89 0 00.95.49 11.49 11.49 0 001.85.29 10.09 10.09 0 011.88.37 5.55 5.55 0 012.1 1.1 3.37 3.37 0 011.24 2.19 3.63 3.63 0 01-1.14 3.19 4.6 4.6 0 01-1.84 1.1 6 6 0 01-2.94.19 5.16 5.16 0 01-2.59-1.2l-.35-.31s-.05-.07-.09 0 0 .08 0 .13v1c0 .17-.06.22-.23.22h-2.24c-.18 0-.23-.06-.23-.24.01-.73 0-1.4 0-2.07zm-4.83 2.24h-3.53c-.21 0-.27-.06-.26-.26v-2c0-.25 0-.28.28-.28h1.84c.18 0 .25 0 .25-.24v-7.08c0-.23 0-.26-.29-.26h-1.76c-.28 0-.29 0-.29-.29v-1.95c0-.18.05-.26.25-.26h7c.24 0 .26 0 .26.27v2c0 .2-.07.25-.26.25h-1.64c-.37 0-.38 0-.38.37v6.88c0 .33 0 .33.33.33h1.77c.17 0 .23.06.23.23v2c0 .21-.08.25-.27.25zm12.68-20.39a16 16 0 012 .14 12.38 12.38 0 012.6.59 13.48 13.48 0 013.11 1.49 8.57 8.57 0 01.79.55c.47.38.93.79 1.38 1.21a14.53 14.53 0 011.86 2.2.1.1 0 010 .05c0 .06.11.12.07.19s-.13 0-.2 0a.48.48 0 01-.52-.25 13.1 13.1 0 00-1.88-2.13c-.25-.23-.52-.44-.78-.65a.13.13 0 00-.18 0c-.34.24-.7.44-1.05.65-.12.07-.12.12 0 .22a14.73 14.73 0 011.28 1.84c0 .09.15.18.1.28s-.2.05-.3.06a.3.3 0 01-.3-.18 11.85 11.85 0 00-1.2-1.7.29.29 0 00-.39-.11 12.56 12.56 0 01-1.86.68c-.17 0-.18.12-.12.25.11.28.22.55.32.83s.07.21-.15.23a.34.34 0 01-.41-.28 6.86 6.86 0 00-.27-.71.16.16 0 00-.21-.1l-1.28.22a12.92 12.92 0 01-1.75.15c-.26 0-.28 0-.28.27v.17c0 .27-.1.34-.37.27a.11.11 0 01-.11-.12v-.24c0-.32 0-.34-.34-.35a16.65 16.65 0 01-2.9-.35.25.25 0 00-.32.19l-.27.71a.44.44 0 01-.54.14c-.07-.06 0-.13 0-.2.11-.28.22-.57.34-.85.06-.13 0-.18-.11-.21a12.79 12.79 0 01-1.91-.69.25.25 0 00-.35.08 11.52 11.52 0 00-1.21 1.74.63.63 0 01-.6.15c-.07-.05 0-.1 0-.14a7.59 7.59 0 01.67-1.09c.22-.31.45-.62.68-.92.09-.11.06-.16 0-.22l-1-.63a.16.16 0 00-.23 0 14.11 14.11 0 00-2.68 2.83.6.6 0 01-.61.16c-.11-.05 0-.11 0-.16a10.6 10.6 0 01.81-1.09 13.84 13.84 0 011.1-1.2 14.08 14.08 0 013.11-2.3 13.7 13.7 0 012.47-1 15.33 15.33 0 012.11-.48c.61-.11 1.32-.14 1.88-.19zm.07 1.95a7.93 7.93 0 002.87-.39 2.18 2.18 0 00.74-.35c.09-.07.13-.14 0-.18s-.43-.14-.65-.18a18.44 18.44 0 00-2-.26 14.32 14.32 0 00-2.85.11c-.48.06-.94.2-1.41.27-.1 0-.26 0-.27.14s.13.16.23.21a4.84 4.84 0 001.33.44 7.39 7.39 0 002.01.19zm-.21 2v-1.18c0-.14 0-.21-.19-.21a5.83 5.83 0 01-.72-.06c-.17 0-.35-.07-.5.06s-.32.28-.47.43a7.87 7.87 0 00-1.26 1.78c-.09.16-.06.21.13.24a20 20 0 002.76.32c.19 0 .25-.05.25-.24-.01-.46 0-.84 0-1.22zm.48 0v1c0 .25 0 .28.29.25.53-.07 1.07-.05 1.61-.13.38-.06.76-.15 1.14-.2.09 0 .19 0 .11-.18a7.49 7.49 0 00-1.44-2 .87.87 0 00-.84-.31 1.69 1.69 0 01-.63.06c-.18 0-.24 0-.24.23.01.42 0 .8 0 1.18zm-4.32.87c.11 0 .14-.05.18-.12a8 8 0 011.58-2.2c.11-.1 0-.14-.06-.17s-.45-.11-.67-.2a.58.58 0 00-.51.06c-.26.14-.51.29-.76.44a8.44 8.44 0 00-1.65 1.33c-.1.11-.12.19.06.24s.31.12.46.18a13.63 13.63 0 001.37.34zm8.18 0h.17a13.76 13.76 0 001.57-.72c.26-.11.27-.11.06-.32a9.21 9.21 0 00-2.13-1.58c-.17-.09-.35-.25-.56-.21a8.29 8.29 0 00-.85.25c-.1 0-.1.08 0 .15l.27.27a9.09 9.09 0 011.21 1.9c.09.09.14.15.26.14zm-7.95-3.06l-.06-.07a1.9 1.9 0 01-.21-.19.22.22 0 00-.29-.09 13.93 13.93 0 00-1.54.65 11 11 0 00-1.69 1c-.13.09-.15.15 0 .25s.56.34.84.5a.26.26 0 00.34-.05 10.12 10.12 0 012.5-1.91s.09-.15.11-.21zm11.6 1.38a.84.84 0 00-.27-.22 14.06 14.06 0 00-2.82-1.42c-.26-.1-.46-.16-.66.1s-.19.19 0 .31a7.28 7.28 0 011.1.69 9.32 9.32 0 011.3 1.13c.08.08.15.15.28.08a10.11 10.11 0 00.94-.56.15.15 0 00.13-.23zM27 43.81a5.41 5.41 0 011-.64c.19-.11.2-.13.06-.3A12.68 12.68 0 0126.77 41c-.11-.19-.08-.21.13-.24a.46.46 0 01.49.29 10.89 10.89 0 001.15 1.63.18.18 0 00.25.06 10.3 10.3 0 011.95-.7c.14 0 .19-.11.13-.24s-.2-.52-.31-.78-.07-.24.16-.26a.33.33 0 01.4.28 4.86 4.86 0 00.25.63c.05.15.17.16.29.13.33-.07.66-.12 1-.17a16.68 16.68 0 012-.17c.2 0 .28-.06.26-.27a.65.65 0 010-.14c0-.27.11-.35.37-.28a.14.14 0 01.11.11V41c0 .48 0 .46.53.5a21.1 21.1 0 012.5.32c.42.1.43.09.6-.3l.2-.54a.44.44 0 01.53-.15c.08.07 0 .14 0 .2-.09.26-.19.52-.29.77s-.08.24.14.31a14 14 0 011.87.69.23.23 0 00.31-.09 10.3 10.3 0 001.13-1.6.48.48 0 01.54-.3c.15 0 .18.06.12.19a9.74 9.74 0 01-.6 1 11.7 11.7 0 01-.75 1c-.08.11-.08.17.05.24a9.71 9.71 0 011 .64c.08.06.13 0 .19 0A12.77 12.77 0 0046.23 41a.59.59 0 01.6-.14c.12 0 0 .11 0 .17-.36.5-.73 1-1.14 1.47a15.54 15.54 0 01-2.61 2.32 3.08 3.08 0 01-.74.44l-.19-.47a5.87 5.87 0 00.67-.43c.1-.07.13-.12 0-.2l-.61-.38c-.47-.28-.49-.28-.83.16l-.53-.19.29-.31c.09-.09.08-.17 0-.21a11.69 11.69 0 00-1.8-.64.19.19 0 00-.25.13 8.67 8.67 0 01-.93 1.47 2.53 2.53 0 01-.71.71l-.24-.44a.34.34 0 00.19-.14 8.33 8.33 0 001.09-1.55c.19-.34.19-.34-.17-.42a11.94 11.94 0 00-1.44-.22c-.37 0-.74 0-1.1-.09s-.34 0-.34.3v1.35H35a.46.46 0 010-.26v-1.22c0-.17-.07-.25-.24-.23s-.51.06-.76.07a11.29 11.29 0 00-2 .26c-.25.05-.25.07-.12.3.22.4.47.78.71 1.16h-.63a.29.29 0 000-.1 11.68 11.68 0 01-.63-1.08.17.17 0 00-.33-.09 13.1 13.1 0 00-1.82.64c-.15.07-.13.13 0 .22l.39.4h-.72c-.26-.32-.28-.33-.63-.14s-.5.3-.76.44z"/><path class="cls-1" d="M42.15 44.74l.19.47a6.28 6.28 0 01.09 2.86 2.41 2.41 0 01-.94 1.62 2.21 2.21 0 01-1.9.25 2.1 2.1 0 01-1.46-1.8 6.14 6.14 0 01-.13-1.21v-.59l.08-.65.11-.39v-.19a2.06 2.06 0 011-1.25 2.52 2.52 0 011.6-.16l.53.19a2.41 2.41 0 01.83.85zm-2.86 1.67v.17a5 5 0 00.13 1.64c.11.33.24.66.63.74s.89-.1 1.09-.79a7.1 7.1 0 00.1-2.11.69.69 0 00-.06-.37c0-.11 0-.25-.11-.36a.81.81 0 00-.7-.63.78.78 0 00-.9.63 2.23 2.23 0 00-.17.72zM35 43.68h.44a2.2 2.2 0 011.15.25 2.6 2.6 0 01.62.52l.24.44a.29.29 0 00.07.16l.14.49a8.75 8.75 0 01.09.88v.48a6 6 0 01-.14 1.27 2.34 2.34 0 01-.89 1.47 2.19 2.19 0 01-1.89.28 2.06 2.06 0 01-1.44-1.61 10.75 10.75 0 01-.18-1.25 2 2 0 000-.55 7.37 7.37 0 01.17-1.16l.2-.61.05-.05A1.9 1.9 0 0135 43.68zm1.3 1.61l-.06-.16a.83.83 0 00-.87-.43.77.77 0 00-.62.59.64.64 0 00-.11.27 6.11 6.11 0 00-.08 2 2.63 2.63 0 00.31 1.08.8.8 0 001.26.07 2.57 2.57 0 00.36-1.57 1.52 1.52 0 000-.52v-.34a2.82 2.82 0 00-.23-.99zM27 43.81l.46.26a2.29 2.29 0 01.48.55 2.54 2.54 0 01.22.71 2.33 2.33 0 01-1.34 2.29 5.91 5.91 0 00-1.33 1s-.13.09-.1.16.13 0 .2 0h2.38c.2 0 .26.06.25.25s0 .44 0 .66 0 .18-.16.18h-4.21c-.16 0-.17-.08-.17-.2A2.5 2.5 0 0124.5 48a14.36 14.36 0 011.63-1.18 1.94 1.94 0 00.6-.61 1 1 0 00-.44-1.4.88.88 0 00-1.12.5A1.73 1.73 0 0025 46c0 .14-.06.2-.21.19H24c-.12 0-.17 0-.17-.16a2.35 2.35 0 011-2 2.16 2.16 0 011-.33 5.23 5.23 0 01.79 0zm1.82-.05h3.69a.34.34 0 00.1 0c.18 0 .21.06.2.22s0 .49 0 .73a.4.4 0 01-.07.24 2.8 2.8 0 00-.63.7 3.86 3.86 0 00-.32.56 1.86 1.86 0 00-.25.51 5.53 5.53 0 00-.42 1.18 8.42 8.42 0 00-.31 1.85c0 .15-.07.18-.2.18h-.94c-.17 0-.23 0-.21-.23a8.36 8.36 0 01.77-2.76l.25-.52a3.33 3.33 0 00.28-.48l.32-.48a2.4 2.4 0 00.28-.37s.08-.08 0-.11-.12 0-.19 0a8.19 8.19 0 00-.86 0h-1.55c-.16 0-.22 0-.22-.2a6.09 6.09 0 000-.74c.03-.22.09-.31.28-.28zm17.25 3.09v2.84c0 .18 0 .24-.22.23a6.31 6.31 0 00-.87 0c-.16 0-.2-.06-.2-.21v-3.53c0-.21-.06-.26-.26-.25h-1.1c-.14 0-.18 0-.18-.19a5.61 5.61 0 000-.58c0-.15 0-.2.2-.2a1.73 1.73 0 001.1-.34 1.15 1.15 0 00.46-.7c0-.13.08-.17.21-.17a3.64 3.64 0 00.66 0c.16 0 .19.05.19.2 0 .97.01 1.93.01 2.9zm-19.5-3.17a5.23 5.23 0 00-.79 0c0-.1-.12-.13-.18-.19a15.44 15.44 0 01-2.05-2.37c0-.07-.13-.14-.08-.23s.15 0 .22-.05a.42.42 0 01.44.2 13.16 13.16 0 002.26 2.45.44.44 0 01.18.19z"/><path class="cls-1" d="M30.75 45.94a3.33 3.33 0 01-.28.48 15.54 15.54 0 01-2.34-1.09 2.54 2.54 0 00-.22-.71h.15a9.23 9.23 0 001.61.86 8.32 8.32 0 001.08.46zm.78.78a1.86 1.86 0 01.25-.51.37.37 0 00.12.07l1.31.26a2 2 0 010 .55c-.53-.1-1.07-.18-1.59-.32zm6.22-.03v-.24a1.19 1.19 0 01.26-.11v.58a.43.43 0 01-.25 0v-.15a.06.06 0 00-.01-.08z"/><path class="cls-2" d="M45.75 37.14a3.05 3.05 0 01-2.1-1 2.15 2.15 0 01-.51-1 8.82 8.82 0 01-.14-2.55 4.28 4.28 0 01.62-2.22 2.45 2.45 0 011.47-1.07 3.65 3.65 0 012.17.08 2.42 2.42 0 011.27 1.13A4.19 4.19 0 0149 32.2a14.44 14.44 0 010 2.08 3.11 3.11 0 01-.48 1.65 2.52 2.52 0 01-.7.68 3.43 3.43 0 01-2.07.53zM35.13 21a7.39 7.39 0 01-2-.16 4.84 4.84 0 01-1.33-.44c-.1-.05-.25-.1-.23-.21s.17-.12.27-.14c.47-.07.93-.21 1.41-.27a14.32 14.32 0 012.85-.11 18.44 18.44 0 012 .26c.22 0 .44.12.65.18s.12.11 0 .18a2.18 2.18 0 01-.74.35 7.93 7.93 0 01-2.88.36zm-.21 1.92v1.14c0 .19-.06.25-.25.24a20 20 0 01-2.76-.3c-.19 0-.22-.08-.13-.24A7.87 7.87 0 0133 22c.15-.15.31-.29.47-.43s.33-.08.5-.06a5.83 5.83 0 00.72.06c.15 0 .19.07.19.21.03.35.04.75.04 1.14zm.48-.02v-1.14c0-.18.06-.24.24-.23a1.69 1.69 0 00.63-.06.87.87 0 01.84.31 7.49 7.49 0 011.44 2c.08.14 0 .17-.11.18-.38.05-.76.14-1.14.2-.54.08-1.08.06-1.61.13-.25 0-.29 0-.29-.25zm-4.32.87a13.63 13.63 0 01-1.37-.44c-.15-.06-.3-.13-.46-.18s-.16-.13-.06-.24a8.44 8.44 0 011.65-1.33c.25-.15.5-.3.76-.44a.58.58 0 01.51-.06c.22.09.45.13.67.2s.17.07.06.17a8 8 0 00-1.58 2.2c-.04.07-.07.15-.18.12zm8.18-.02c-.12 0-.17-.05-.22-.14a9.09 9.09 0 00-1.29-1.9l-.27-.27c-.07-.07-.07-.12 0-.15a8.29 8.29 0 01.85-.25c.21 0 .39.12.56.21a9.21 9.21 0 012.13 1.58c.21.21.2.21-.06.32a13.76 13.76 0 01-1.56.56zm-7.95-3.06c0 .06-.07.06-.1.08a10.12 10.12 0 00-2.5 1.91.26.26 0 01-.34.05c-.28-.16-.57-.32-.84-.5s-.14-.16 0-.25a11 11 0 011.69-1 13.93 13.93 0 011.54-.65.22.22 0 01.29.09 1.9 1.9 0 00.21.19zm11.6 1.38a.15.15 0 01-.09.11 10.11 10.11 0 01-.94.56c-.13.07-.2 0-.28-.08a9.32 9.32 0 00-1.3-1.13 7.28 7.28 0 00-1.1-.69c-.23-.12-.2-.12 0-.31s.4-.2.66-.1a14.06 14.06 0 012.82 1.42.84.84 0 01.23.22zM32.73 45a.4.4 0 00.07-.24v-.73c0-.24 0-.25-.2-.22a.34.34 0 01-.1 0c-.24-.38-.49-.76-.71-1.16-.13-.23-.13-.25.12-.3a11.29 11.29 0 012-.26c.25 0 .51 0 .76-.07s.24.06.24.23v1.22a.46.46 0 000 .26 1.9 1.9 0 00-1.33 1l-.05.05a2.39 2.39 0 01-.53-.48s-.06-.08-.11-.06 0 .07 0 .12v.45c0 .15-.04.19-.16.19zm4.44-.59a2.6 2.6 0 00-.62-.52 2.2 2.2 0 00-1.15-.25v-1.35c0-.33 0-.33.34-.3s.73.06 1.1.09a11.94 11.94 0 011.44.22c.36.08.36.08.17.42a8.33 8.33 0 01-1.09 1.55.34.34 0 01-.19.14zm.31.59a.29.29 0 01-.07-.16 2.53 2.53 0 00.71-.71 8.67 8.67 0 00.93-1.47.19.19 0 01.25-.13 11.69 11.69 0 011.8.64c.12 0 .13.12 0 .21l-.29.31a2.52 2.52 0 00-1.6.16 2.06 2.06 0 00-1 1.25v.06a1.42 1.42 0 00-.73-.16zm-5.6-1.24h-2.34l-.39-.4c-.09-.09-.11-.15 0-.22A13.1 13.1 0 0131 42.5a.17.17 0 01.21.08 11.68 11.68 0 00.63 1.08.29.29 0 01.04.1zm-1.13 2.18a8.32 8.32 0 01-1.08-.42 9.23 9.23 0 01-1.61-.86h-.15a2.29 2.29 0 00-.48-.55l.76-.45c.35-.19.37-.18.63.14-.19 0-.25.06-.24.25a6.09 6.09 0 010 .74c0 .16.06.2.22.2h1.55a.23.23 0 00.13.14l.59.37zm11.4-1.2a2.41 2.41 0 00-.77-.85c.34-.44.36-.44.83-.16l.61.38c.13.08.1.13 0 .2a5.87 5.87 0 01-.67.43zm-.97.95a.69.69 0 01.06.37 7.1 7.1 0 01-.1 2.11c-.2.69-.56.91-1.09.79s-.52-.41-.63-.74a5 5 0 01-.13-1.64h.09a10.46 10.46 0 001.53-.58c.09-.08.3-.1.27-.31zm-1.88.36a2.23 2.23 0 01.17-.72 5.59 5.59 0 00.9-.63.81.81 0 01.7.63c-.28.13-.56.27-.86.38z"/><path class="cls-1" d="M39.3 46.05l.91-.34c.3-.11.58-.25.86-.38.09.11.06.25.11.36s-.14.23-.27.29a10.46 10.46 0 01-1.53.58h-.09v-.53zM37.48 45a1.42 1.42 0 01.73.16v.13l-.11.39c-.15 0-.28-.13-.43-.12z"/><path class="cls-2" d="M37.65 45.57c.15 0 .28.09.43.12l-.08.65a1.19 1.19 0 00-.26.11 8.75 8.75 0 00-.09-.88z"/><path class="cls-1" d="M40.37 44.7a5.59 5.59 0 01-.9.63.78.78 0 01.9-.63z"/><path class="cls-2" d="M38.19 45.3zM38 46.78zm1.29-.37v.06s-.02-.04 0-.06zm-2.84.73a2.57 2.57 0 01-.36 1.57.8.8 0 01-1.26-.07 2.63 2.63 0 01-.31-1.08 6.11 6.11 0 01.08-2 .64.64 0 01.11-.27.66.66 0 01.28 0h1.27a2.82 2.82 0 01.2 1v.34h-1.72c-.07 0-.16 0-.18.05a.64.64 0 000 .43c0 .11.16.07.25.07.54 0 1.09.03 1.64-.04zm-3.24-.6l-1.31-.26a.37.37 0 01-.12-.07 3.86 3.86 0 01.32-.56.17.17 0 00.19 0 6 6 0 011.09-.28 7.37 7.37 0 00-.17 1.17z"/><path class="cls-1" d="M36.45 47.14c-.55.07-1.1 0-1.65.07-.09 0-.21 0-.25-.07a.64.64 0 010-.43c0-.07.11-.05.18-.05h1.72a1.52 1.52 0 010 .48zm-3.07-1.76a6 6 0 00-1.09.28.17.17 0 01-.19 0 2.8 2.8 0 01.63-.7c.12 0 .13 0 .12-.14s0-.3 0-.45v-.12c0-.02.08 0 .11.06a2.39 2.39 0 00.58.47zm2.88-.09h-1.27a.66.66 0 00-.28 0 .77.77 0 01.62-.59.83.83 0 01.87.43z"/><path class="cls-2" d="M37.75 46.69a.06.06 0 010 .09zm-.13-1.19z"/><path class="cls-1" d="M31.07 45.46l-.59-.37a.23.23 0 01-.13-.14 8.19 8.19 0 01.86 0 .17.17 0 01.14.13 2.4 2.4 0 01-.28.38z"/><path class="cls-2" d="M31.35 45.09a.17.17 0 00-.14-.13h.19c.05 0 0 .1-.05.13z"/></svg>