<svg width="8" height="8" viewBox="0 0 8 8" fill="none" xmlns="http://www.w3.org/2000/svg">
<path d="M3.76381 1.19439C3.92055 0.899489 4.34312 0.89949 4.49986 1.19439L5.37523 2.84138C5.43823 2.95992 5.55448 3.04086 5.68752 3.05881L7.5912 3.31567C7.94261 3.36309 8.07805 3.79975 7.81516 4.0377L6.47847 5.24758C6.37132 5.34457 6.32206 5.49015 6.34831 5.63228L6.66921 7.36959C6.73135 7.70606 6.384 7.96992 6.07652 7.81982L4.31467 6.95972C4.19929 6.9034 4.06438 6.9034 3.949 6.95972L2.18715 7.81982C1.87967 7.96992 1.53232 7.70606 1.59447 7.36959L1.91536 5.63228C1.94161 5.49015 1.89236 5.34457 1.7852 5.24758L0.448516 4.0377C0.185625 3.79975 0.321067 3.36309 0.67247 3.31567L2.57615 3.05881C2.70919 3.04086 2.82544 2.95992 2.88845 2.84138L3.76381 1.19439Z" fill="#FFBA00"/>
</svg>
