<svg width="16" height="17" viewBox="0 0 16 17" fill="none" xmlns="http://www.w3.org/2000/svg">
<g clip-path="url(#clip0_12750_23495)">
<path d="M7.99325 1.54492C4.26725 1.54492 1.25 4.56892 1.25 8.29492C1.25 12.0209 4.26725 15.0449 7.99325 15.0449C11.726 15.0449 14.75 12.0209 14.75 8.29492C14.75 4.56892 11.726 1.54492 7.99325 1.54492ZM8 13.6949C5.0165 13.6949 2.6 11.2784 2.6 8.29492C2.6 5.31142 5.0165 2.89492 8 2.89492C10.9835 2.89492 13.4 5.31142 13.4 8.29492C13.4 11.2784 10.9835 13.6949 8 13.6949ZM8.3375 4.91992H7.325V8.96992L10.8688 11.0962L11.375 10.2659L8.3375 8.46367V4.91992Z" fill="#323232"/>
</g>
<defs>
<clipPath id="clip0_12750_23495">
<rect width="16" height="16" fill="white" transform="translate(0 0.294922)"/>
</clipPath>
</defs>
</svg>
