<svg width="33" height="32" viewBox="0 0 33 32" fill="none" xmlns="http://www.w3.org/2000/svg">
<mask id="mask0_14143_36895" style="mask-type:alpha" maskUnits="userSpaceOnUse" x="0" y="0" width="33" height="32">
<rect x="0.125" width="32" height="32" fill="#D9D9D9"/>
</mask>
<g mask="url(#mask0_14143_36895)">
<path d="M16.0576 28C12.8279 28 10.0631 26.8796 7.76312 24.6389C5.46312 22.3981 4.25757 19.6592 4.14648 16.4222H6.39092C6.49461 19.0444 7.47423 21.2592 9.32978 23.0667C11.1853 24.8741 13.4279 25.7778 16.0576 25.7778C18.8057 25.7778 21.1335 24.8167 23.0409 22.8945C24.9483 20.9722 25.9021 18.637 25.9021 15.8889C25.9021 13.1852 24.9409 10.8981 23.0187 9.02777C21.0965 7.15739 18.7761 6.2222 16.0576 6.2222C14.5391 6.2222 13.1169 6.57036 11.7909 7.26667C10.465 7.96296 9.32424 8.89628 8.36868 10.0666H11.9243V12.2889H4.61315V5H6.83535V8.4C7.98351 7.02222 9.35944 5.94444 10.9632 5.16667C12.5668 4.38889 14.265 4 16.0576 4C17.7243 4 19.2891 4.31297 20.752 4.9389C22.215 5.56481 23.4928 6.41666 24.5854 7.49443C25.678 8.57221 26.5409 9.83518 27.1743 11.2833C27.8076 12.7315 28.1243 14.2889 28.1243 15.9556C28.1243 17.6222 27.8076 19.187 27.1743 20.65C26.5409 22.113 25.678 23.387 24.5854 24.4722C23.4928 25.5574 22.215 26.4167 20.752 27.05C19.2891 27.6833 17.7243 28 16.0576 28ZM20.1465 21.4889L15.0354 16.4222V9.26667H17.2576V15.5111L21.7243 19.9111L20.1465 21.4889Z" fill="#383838"/>
</g>
</svg>
