<svg width="32" height="32" viewBox="0 0 32 32" fill="none" xmlns="http://www.w3.org/2000/svg">
<mask id="mask0_14143_36888" style="mask-type:alpha" maskUnits="userSpaceOnUse" x="0" y="0" width="32" height="32">
<rect width="32" height="32" fill="#D9D9D9"/>
</mask>
<g mask="url(#mask0_14143_36888)">
<path d="M2 26.4753V23.4828C2 22.681 2.19935 21.9868 2.59804 21.4C2.99672 20.8133 3.54948 20.3527 4.25634 20.0181C5.78286 19.3042 7.22557 18.771 8.58445 18.4185C9.94336 18.0661 11.4772 17.8898 13.186 17.8898C13.9216 17.8898 14.6337 17.9225 15.3224 17.9878C16.0111 18.0532 16.6757 18.1645 17.3162 18.322L15.7254 19.9224C15.341 19.8727 14.9342 19.8338 14.5049 19.8057C14.0757 19.7777 13.636 19.7637 13.186 19.7637C11.5792 19.7637 10.1656 19.9211 8.94539 20.236C7.72511 20.5509 6.43361 21.0359 5.07087 21.6911C4.63171 21.9034 4.32241 22.1679 4.14299 22.4847C3.96356 22.8015 3.87385 23.1342 3.87385 23.4828V24.6015H14.165L16.0389 26.4753H2ZM21.3757 27.5882L16.691 22.9035L18.0103 21.5841L21.3757 24.9495L29.1046 17.2206L30.424 18.5399L21.3757 27.5882ZM13.186 15.077C11.7505 15.077 10.5519 14.5977 9.59015 13.6392C8.62842 12.6806 8.14756 11.482 8.14756 10.0433C8.14756 8.60453 8.62842 7.40431 9.59015 6.4426C10.5519 5.48087 11.7505 5 13.186 5C14.6215 5 15.8202 5.48087 16.7819 6.4426C17.7436 7.40431 18.2245 8.60453 18.2245 10.0433C18.2245 11.482 17.7436 12.6806 16.7819 13.6392C15.8202 14.5977 14.6215 15.077 13.186 15.077ZM13.186 13.2031C14.0803 13.2031 14.8313 12.8993 15.439 12.2915C16.0468 11.6837 16.3506 10.9327 16.3506 10.0385C16.3506 9.14422 16.0468 8.39323 15.439 7.7855C14.8313 7.17774 14.0803 6.87386 13.186 6.87386C12.2918 6.87386 11.5408 7.17774 10.933 7.7855C10.3253 8.39323 10.0214 9.14422 10.0214 10.0385C10.0214 10.9327 10.3253 11.6837 10.933 12.2915C11.5408 12.8993 12.2918 13.2031 13.186 13.2031Z" fill="#383838"/>
</g>
</svg>
