<svg width="16" height="16" viewBox="0 0 16 16" fill="none" xmlns="http://www.w3.org/2000/svg">
<mask id="mask0_15237_35453" style="mask-type:alpha" maskUnits="userSpaceOnUse" x="0" y="0" width="16" height="16">
<rect width="16" height="16" fill="#D9D9D9"/>
</mask>
<g mask="url(#mask0_15237_35453)">
<path d="M0.666748 13.3327V11.466C0.666748 11.0882 0.76397 10.741 0.958415 10.4243C1.15286 10.1077 1.41119 9.86602 1.73341 9.69935C2.4223 9.3549 3.1223 9.09657 3.83341 8.92435C4.54453 8.75213 5.26675 8.66602 6.00008 8.66602C6.73342 8.66602 7.45564 8.75213 8.16675 8.92435C8.87786 9.09657 9.57786 9.3549 10.2667 9.69935C10.589 9.86602 10.8473 10.1077 11.0417 10.4243C11.2362 10.741 11.3334 11.0882 11.3334 11.466V13.3327H0.666748ZM12.6667 13.3327V11.3327C12.6667 10.8438 12.5306 10.3743 12.2584 9.92435C11.9862 9.47435 11.6001 9.08824 11.1001 8.76602C11.6667 8.83268 12.2001 8.94657 12.7001 9.10768C13.2001 9.26879 13.6667 9.46602 14.1001 9.69935C14.5001 9.92157 14.8056 10.1688 15.0167 10.441C15.2279 10.7132 15.3334 11.0105 15.3334 11.3327V13.3327H12.6667ZM6.00008 7.99935C5.26675 7.99935 4.63897 7.73824 4.11675 7.21602C3.59453 6.69379 3.33341 6.06602 3.33341 5.33268C3.33341 4.59935 3.59453 3.97157 4.11675 3.44935C4.63897 2.92713 5.26675 2.66602 6.00008 2.66602C6.73342 2.66602 7.36119 2.92713 7.88341 3.44935C8.40564 3.97157 8.66675 4.59935 8.66675 5.33268C8.66675 6.06602 8.40564 6.69379 7.88341 7.21602C7.36119 7.73824 6.73342 7.99935 6.00008 7.99935ZM12.6667 5.33268C12.6667 6.06602 12.4056 6.69379 11.8834 7.21602C11.3612 7.73824 10.7334 7.99935 10.0001 7.99935C9.87786 7.99935 9.7223 7.98546 9.53341 7.95768C9.34453 7.9299 9.18897 7.89935 9.06675 7.86602C9.36675 7.51046 9.5973 7.11602 9.75842 6.68268C9.91953 6.24935 10.0001 5.79935 10.0001 5.33268C10.0001 4.86602 9.91953 4.41602 9.75842 3.98268C9.5973 3.54935 9.36675 3.1549 9.06675 2.79935C9.2223 2.74379 9.37786 2.70768 9.53341 2.69102C9.68897 2.67435 9.84453 2.66602 10.0001 2.66602C10.7334 2.66602 11.3612 2.92713 11.8834 3.44935C12.4056 3.97157 12.6667 4.59935 12.6667 5.33268ZM2.00008 11.9993H10.0001V11.466C10.0001 11.3438 9.96953 11.2327 9.90841 11.1327C9.8473 11.0327 9.76675 10.9549 9.66675 10.8993C9.06675 10.5993 8.46119 10.3743 7.85008 10.2243C7.23897 10.0743 6.6223 9.99935 6.00008 9.99935C5.37786 9.99935 4.76119 10.0743 4.15008 10.2243C3.53897 10.3743 2.93341 10.5993 2.33341 10.8993C2.23341 10.9549 2.15286 11.0327 2.09175 11.1327C2.03064 11.2327 2.00008 11.3438 2.00008 11.466V11.9993ZM6.00008 6.66602C6.36675 6.66602 6.68064 6.53546 6.94175 6.27435C7.20286 6.01324 7.33342 5.69935 7.33342 5.33268C7.33342 4.96602 7.20286 4.65213 6.94175 4.39102C6.68064 4.1299 6.36675 3.99935 6.00008 3.99935C5.63341 3.99935 5.31953 4.1299 5.05841 4.39102C4.7973 4.65213 4.66675 4.96602 4.66675 5.33268C4.66675 5.69935 4.7973 6.01324 5.05841 6.27435C5.31953 6.53546 5.63341 6.66602 6.00008 6.66602Z" fill="#383838"/>
</g>
</svg>
