<svg width="21" height="21" viewBox="0 0 21 21" fill="none" xmlns="http://www.w3.org/2000/svg">
<mask id="mask0_15243_35534" style="mask-type:alpha" maskUnits="userSpaceOnUse" x="0" y="0" width="21" height="21">
<rect x="0.920898" y="0.167969" width="20" height="20" fill="#D9D9D9"/>
</mask>
<g mask="url(#mask0_15243_35534)">
<path d="M8.6568 16.0297V14.6408H18.4207V16.0297H8.6568ZM8.6568 10.8631V9.47418H18.4207V10.8631H8.6568ZM8.6568 5.6825V4.29362H18.4207V5.6825H8.6568ZM4.93455 16.8214C4.52206 16.8214 4.16895 16.679 3.8752 16.3943C3.58145 16.1096 3.43457 15.7589 3.43457 15.3422C3.43457 14.9256 3.57924 14.5726 3.86859 14.2832C4.15794 13.9939 4.51095 13.8492 4.92761 13.8492C5.34428 13.8492 5.69497 13.9961 5.9797 14.2898C6.26442 14.5836 6.40678 14.9367 6.40678 15.3492C6.40678 15.754 6.26263 16.1006 5.97432 16.3889C5.686 16.6772 5.33941 16.8214 4.93455 16.8214ZM4.93455 11.6547C4.52206 11.6547 4.16895 11.5092 3.8752 11.2182C3.58145 10.9272 3.43457 10.5773 3.43457 10.1686C3.43457 9.75994 3.58145 9.41008 3.8752 9.11906C4.16895 8.82803 4.52206 8.68252 4.93455 8.68252C5.33941 8.68252 5.686 8.82803 5.97432 9.11906C6.26263 9.41008 6.40678 9.75994 6.40678 10.1686C6.40678 10.5773 6.26263 10.9272 5.97432 11.2182C5.686 11.5092 5.33941 11.6547 4.93455 11.6547ZM4.92067 6.47416C4.51199 6.47416 4.16214 6.32865 3.87111 6.03762C3.58008 5.74659 3.43457 5.39674 3.43457 4.98806C3.43457 4.57938 3.58008 4.22952 3.87111 3.93849C4.16214 3.64747 4.51199 3.50195 4.92067 3.50195C5.32936 3.50195 5.67921 3.64747 5.97024 3.93849C6.26126 4.22952 6.40678 4.57938 6.40678 4.98806C6.40678 5.39674 6.26126 5.74659 5.97024 6.03762C5.67921 6.32865 5.32936 6.47416 4.92067 6.47416Z" fill="#383838"/>
</g>
</svg>
