<svg xmlns="http://www.w3.org/2000/svg" width="188.591" height="55.51" viewBox="0 0 188.591 55.51"><defs><style>.a{fill:#96999c;}.b{fill:#fff;}</style></defs><g transform="translate(0 0)"><rect width="187.191" height="54.11" rx="7.382" transform="translate(0.7 0.7)"/><path class="a" d="M206.952,73.309H32.557a7.106,7.106,0,0,1-7.1-7.1V24.9a7.106,7.106,0,0,1,7.1-7.1h174.4a7.106,7.106,0,0,1,7.1,7.1V66.211A7.106,7.106,0,0,1,206.952,73.309ZM32.557,19.2a5.7,5.7,0,0,0-5.7,5.7V66.211a5.7,5.7,0,0,0,5.7,5.7h174.4a5.7,5.7,0,0,0,5.7-5.7V24.9a5.7,5.7,0,0,0-5.7-5.7Z" transform="translate(-25.459 -17.799)"/><g transform="translate(60.283 8.75)"><path class="b" d="M97.523,35.008l-.785,2.583H95.02l2.922-9.118h2.123l2.963,9.118h-1.786l-.825-2.583Zm2.611-1.258L99.416,31.5c-.176-.555-.325-1.177-.46-1.7h-.027c-.135.528-.27,1.163-.433,1.7l-.7,2.245Z" transform="translate(-95.02 -27.973)"/><path class="b" d="M106.854,31.393l1.068,3.342c.19.582.325,1.109.447,1.65h.041c.121-.541.27-1.055.446-1.65l1.055-3.342h1.745l-2.517,6.588H107.5l-2.449-6.588Z" transform="translate(-96.358 -28.362)"/><path class="b" d="M119.476,36.376a8.858,8.858,0,0,0,.108,1.582h-1.5l-.121-.731h-.041a2.408,2.408,0,0,1-1.948.88,1.955,1.955,0,0,1-2.07-1.962c0-1.65,1.475-2.5,3.909-2.489v-.108c0-.432-.176-1.149-1.339-1.149a3.48,3.48,0,0,0-1.772.487l-.325-1.082a4.741,4.741,0,0,1,2.382-.582,2.468,2.468,0,0,1,2.719,2.786Zm-1.623-1.637c-1.177-.014-2.3.23-2.3,1.231a.873.873,0,0,0,.947.946,1.367,1.367,0,0,0,1.312-.906,1.117,1.117,0,0,0,.041-.365Z" transform="translate(-97.539 -28.34)"/><path class="b" d="M123.859,30.023a.942.942,0,1,1,.014,0Zm-.825,7.535V30.97H124.7v6.588Z" transform="translate(-98.744 -27.94)"/><path class="b" d="M127.73,27.9h1.664v9.619H127.73Z" transform="translate(-99.383 -27.896)"/><path class="b" d="M137.47,36.376a8.947,8.947,0,0,0,.107,1.582h-1.5l-.121-.731h-.041a2.406,2.406,0,0,1-1.948.88,1.956,1.956,0,0,1-2.069-1.962c0-1.65,1.475-2.5,3.909-2.489v-.108c0-.432-.175-1.149-1.339-1.149a3.48,3.48,0,0,0-1.772.487L132.37,31.8a4.737,4.737,0,0,1,2.381-.582,2.468,2.468,0,0,1,2.719,2.786Zm-1.624-1.637c-1.177-.014-2.3.23-2.3,1.231a.872.872,0,0,0,.946.946,1.367,1.367,0,0,0,1.312-.906,1.117,1.117,0,0,0,.041-.365Z" transform="translate(-99.938 -28.34)"/><path class="b" d="M141.034,27.9H142.7v3.937h.027a2.385,2.385,0,0,1,2.11-1.055c1.61,0,2.759,1.339,2.745,3.341,0,2.368-1.5,3.544-2.989,3.544a2.268,2.268,0,0,1-2.083-1.137h-.027l-.081.988h-1.42c.027-.446.055-1.177.055-1.84Zm1.664,6.9a1.844,1.844,0,0,0,.04.393,1.521,1.521,0,0,0,1.475,1.164c1.042,0,1.677-.825,1.677-2.165,0-1.163-.555-2.11-1.664-2.11a1.546,1.546,0,0,0-1.474,1.218,2,2,0,0,0-.054.433Z" transform="translate(-101.15 -27.896)"/><path class="b" d="M150.857,27.9h1.664v9.619h-1.664Z" transform="translate(-102.467 -27.896)"/><path class="b" d="M156.667,35.131a1.79,1.79,0,0,0,2.029,1.7,5.305,5.305,0,0,0,1.826-.3l.244,1.136a5.913,5.913,0,0,1-2.3.419,3.117,3.117,0,0,1-3.4-3.328,3.262,3.262,0,0,1,3.22-3.544c2.137,0,2.84,1.758,2.84,3.206a4.242,4.242,0,0,1-.053.7Zm2.895-1.164a1.416,1.416,0,0,0-1.367-1.609,1.627,1.627,0,0,0-1.528,1.609Z" transform="translate(-103.029 -28.34)"/><path class="b" d="M171.028,38.107a3.186,3.186,0,0,1-3.3-3.4,3.253,3.253,0,0,1,3.41-3.49,3.16,3.16,0,0,1,3.273,3.382,3.261,3.261,0,0,1-3.369,3.5Zm.054-1.2c.946,0,1.61-.919,1.61-2.258,0-1.029-.461-2.219-1.6-2.219-1.178,0-1.651,1.15-1.651,2.245,0,1.271.636,2.232,1.624,2.232Z" transform="translate(-104.717 -28.34)"/><path class="b" d="M177.691,33.332c0-.758-.027-1.394-.055-1.962h1.447l.081.988h.041a2.418,2.418,0,0,1,2.11-1.136c1.15,0,2.341.744,2.341,2.827v3.909h-1.664v-3.72c0-.947-.353-1.665-1.258-1.665a1.4,1.4,0,0,0-1.3.974,1.535,1.535,0,0,0-.081.528v3.882h-1.664Z" transform="translate(-106.039 -28.34)"/><path class="b" d="M193.033,29.442v1.691h1.582v1.244h-1.582v2.9c0,.811.217,1.218.853,1.218a2.185,2.185,0,0,0,.649-.068l.027,1.257a3.635,3.635,0,0,1-1.2.176,1.906,1.906,0,0,1-1.433-.541,2.6,2.6,0,0,1-.527-1.854V32.377h-.934V31.133h.934V29.9Z" transform="translate(-107.75 -28.102)"/><path class="b" d="M197.393,27.9h1.664v3.923h.027a2.2,2.2,0,0,1,.825-.744,2.344,2.344,0,0,1,1.151-.3c1.122,0,2.3.744,2.3,2.854v3.882h-1.664V33.808c0-.947-.352-1.678-1.272-1.678a1.389,1.389,0,0,0-1.3.933,1.507,1.507,0,0,0-.068.5v3.95h-1.664Z" transform="translate(-108.674 -27.896)"/><path class="b" d="M208.118,35.131a1.79,1.79,0,0,0,2.029,1.7,5.305,5.305,0,0,0,1.826-.3l.244,1.136a5.913,5.913,0,0,1-2.3.419,3.117,3.117,0,0,1-3.4-3.328,3.262,3.262,0,0,1,3.22-3.544c2.137,0,2.84,1.758,2.84,3.206a4.242,4.242,0,0,1-.053.7Zm2.895-1.164a1.416,1.416,0,0,0-1.366-1.609,1.627,1.627,0,0,0-1.529,1.609Z" transform="translate(-109.891 -28.34)"/></g><g transform="translate(17.815 8.216)"><path class="b" d="M70.289,47.6a8.114,8.114,0,0,1,3.865-6.81,8.309,8.309,0,0,0-6.547-3.541c-2.754-.289-5.426,1.651-6.826,1.651-1.431,0-3.6-1.621-5.922-1.575A8.721,8.721,0,0,0,47.522,41.8c-3.172,5.493-.806,13.564,2.232,18.007,1.521,2.174,3.3,4.6,5.624,4.515,2.275-.094,3.123-1.449,5.871-1.449,2.722,0,3.52,1.449,5.892,1.394,2.441-.04,3.978-2.185,5.444-4.379a17.867,17.867,0,0,0,2.492-5.073A7.841,7.841,0,0,1,70.289,47.6" transform="translate(-46.016 -28.606)"/><path class="b" d="M68.03,33.006a7.977,7.977,0,0,0,1.828-5.726A8.122,8.122,0,0,0,64.6,30a7.6,7.6,0,0,0-1.878,5.514,6.725,6.725,0,0,0,5.309-2.511" transform="translate(-48.238 -27.28)"/><g transform="translate(41.474 16.505)"><path class="b" d="M109.555,65.224h-3.168l-1.738-5.459H98.615L96.96,65.224H93.873l5.984-18.579h3.69Zm-5.428-7.749-1.569-4.851q-.252-.741-.939-3.5h-.055q-.277,1.187-.884,3.5l-1.543,4.851Z" transform="translate(-93.873 -46.368)"/><path class="b" d="M127.733,59.114a7.617,7.617,0,0,1-1.847,5.4,5.4,5.4,0,0,1-4.105,1.763,4.113,4.113,0,0,1-3.806-1.9h-.052v7.056h-2.979V56.991q0-2.149-.109-4.409h2.617l.166,2.123h.056a5.293,5.293,0,0,1,8.475-.523,7.387,7.387,0,0,1,1.584,4.933m-3.031.109A5.525,5.525,0,0,0,123.819,56a3.05,3.05,0,0,0-2.589-1.324,3.091,3.091,0,0,0-2,.731,3.4,3.4,0,0,0-1.173,1.919,3.882,3.882,0,0,0-.136.906v2.235a3.575,3.575,0,0,0,.892,2.466,2.972,2.972,0,0,0,2.331,1.005,3.035,3.035,0,0,0,2.617-1.294,5.688,5.688,0,0,0,.939-3.419" transform="translate(-96.669 -47.123)"/><path class="b" d="M145.511,59.114a7.613,7.613,0,0,1-1.848,5.4,5.4,5.4,0,0,1-4.106,1.763,4.108,4.108,0,0,1-3.8-1.9H135.7v7.056h-2.976V56.991q0-2.149-.11-4.409h2.617L135.4,54.7h.057a5.292,5.292,0,0,1,8.474-.523,7.39,7.39,0,0,1,1.582,4.933m-3.03.109A5.513,5.513,0,0,0,141.6,56a3.048,3.048,0,0,0-2.589-1.324,3.1,3.1,0,0,0-2,.731,3.393,3.393,0,0,0-1.169,1.919,3.735,3.735,0,0,0-.14.906v2.235a3.565,3.565,0,0,0,.894,2.466,2.963,2.963,0,0,0,2.331,1.005,3.039,3.039,0,0,0,2.617-1.294,5.718,5.718,0,0,0,.939-3.419" transform="translate(-99.04 -47.123)"/><path class="b" d="M165.6,59.97a4.945,4.945,0,0,1-1.652,3.859,7.3,7.3,0,0,1-5.058,1.626,8.881,8.881,0,0,1-4.817-1.156l.69-2.481a8.163,8.163,0,0,0,4.3,1.184,4.073,4.073,0,0,0,2.621-.757,2.486,2.486,0,0,0,.935-2.031,2.6,2.6,0,0,0-.77-1.9,7.184,7.184,0,0,0-2.567-1.436q-4.879-1.824-4.877-5.329a4.709,4.709,0,0,1,1.709-3.753,6.745,6.745,0,0,1,4.548-1.466,9.023,9.023,0,0,1,4.216.883l-.743,2.426a7.345,7.345,0,0,0-3.557-.854,3.6,3.6,0,0,0-2.452.771,2.215,2.215,0,0,0-.743,1.681,2.265,2.265,0,0,0,.853,1.818,9.6,9.6,0,0,0,2.7,1.435,9.17,9.17,0,0,1,3.528,2.259,4.735,4.735,0,0,1,1.13,3.225" transform="translate(-101.902 -46.325)"/><path class="b" d="M177.474,54.343h-3.28v6.5q0,2.482,1.738,2.48a5.4,5.4,0,0,0,1.321-.136l.081,2.259a6.684,6.684,0,0,1-2.313.33,3.567,3.567,0,0,1-2.757-1.073,5.28,5.28,0,0,1-.992-3.612V54.343h-1.958V52.109h1.958V49.657l2.921-.883v3.335h3.28Z" transform="translate(-103.935 -46.652)"/><path class="b" d="M193.792,59.17a7.347,7.347,0,0,1-1.764,5.072,6.3,6.3,0,0,1-4.906,2.038,5.988,5.988,0,0,1-4.7-1.958,7.113,7.113,0,0,1-1.751-4.93,7.272,7.272,0,0,1,1.805-5.1,6.237,6.237,0,0,1,4.864-1.986,6.125,6.125,0,0,1,4.742,1.957,7.061,7.061,0,0,1,1.709,4.907m-3.089.1a6.032,6.032,0,0,0-.8-3.179,2.938,2.938,0,0,0-2.671-1.6,2.983,2.983,0,0,0-2.73,1.6,6.156,6.156,0,0,0-.8,3.236,6.029,6.029,0,0,0,.8,3.177,3,3,0,0,0,2.7,1.6,2.97,2.97,0,0,0,2.67-1.63,6.034,6.034,0,0,0,.827-3.207" transform="translate(-105.45 -47.123)"/><path class="b" d="M205.87,55.2a5.361,5.361,0,0,0-.936-.081,2.826,2.826,0,0,0-2.428,1.186,4.472,4.472,0,0,0-.743,2.645v7.028h-2.974l.025-9.177q0-2.316-.109-4.219H201.3l.109,2.565h.08a4.589,4.589,0,0,1,1.49-2.123,3.6,3.6,0,0,1,2.152-.718,4.9,4.9,0,0,1,.743.053Z" transform="translate(-107.855 -47.123)"/><path class="b" d="M220.5,58.641a7.179,7.179,0,0,1-.107,1.351h-8.929a3.891,3.891,0,0,0,1.294,3.033,4.421,4.421,0,0,0,2.923.934,9.893,9.893,0,0,0,3.609-.633l.467,2.068a11.2,11.2,0,0,1-4.493.829,6.5,6.5,0,0,1-4.892-1.835,6.778,6.778,0,0,1-1.777-4.921,7.679,7.679,0,0,1,1.656-5.045,5.7,5.7,0,0,1,4.682-2.148,5,5,0,0,1,4.388,2.148,7.256,7.256,0,0,1,1.179,4.219m-2.838-.772a4.033,4.033,0,0,0-.576-2.287,2.606,2.606,0,0,0-2.374-1.241,2.831,2.831,0,0,0-2.368,1.213,4.41,4.41,0,0,0-.88,2.315Z" transform="translate(-109.174 -47.119)"/></g></g></g></svg>