<svg width="18" height="14" viewBox="0 0 18 14" fill="none" xmlns="http://www.w3.org/2000/svg">
<path d="M15.0583 1.44162C13.95 0.924957 12.75 0.549957 11.5 0.33329C11.489 0.33294 11.4781 0.334997 11.4681 0.339316C11.458 0.343635 11.449 0.350112 11.4417 0.35829C11.2917 0.63329 11.1167 0.991624 11 1.26662C9.67416 1.06662 8.32583 1.06662 7 1.26662C6.88333 0.98329 6.70833 0.63329 6.55 0.35829C6.54166 0.341624 6.51666 0.33329 6.49166 0.33329C5.24166 0.549957 4.05 0.924957 2.93333 1.44162C2.925 1.44162 2.91666 1.44996 2.90833 1.45829C0.641663 4.84996 0.0166626 8.14996 0.324996 11.4166C0.324996 11.4333 0.333329 11.45 0.349996 11.4583C1.85 12.5583 3.29166 13.225 4.71666 13.6666C4.74166 13.675 4.76666 13.6666 4.775 13.65C5.10833 13.1916 5.40833 12.7083 5.66666 12.2C5.68333 12.1666 5.66666 12.1333 5.63333 12.125C5.15833 11.9416 4.70833 11.725 4.26666 11.475C4.23333 11.4583 4.23333 11.4083 4.25833 11.3833C4.35 11.3166 4.44166 11.2416 4.53333 11.175C4.55 11.1583 4.575 11.1583 4.59166 11.1666C7.45833 12.475 10.55 12.475 13.3833 11.1666C13.4 11.1583 13.425 11.1583 13.4417 11.175C13.5333 11.25 13.625 11.3166 13.7167 11.3916C13.75 11.4166 13.75 11.4666 13.7083 11.4833C13.275 11.7416 12.8167 11.95 12.3417 12.1333C12.3083 12.1416 12.3 12.1833 12.3083 12.2083C12.575 12.7166 12.875 13.2 13.2 13.6583C13.225 13.6666 13.25 13.675 13.275 13.6666C14.7083 13.225 16.15 12.5583 17.65 11.4583C17.6667 11.45 17.675 11.4333 17.675 11.4166C18.0417 7.64162 17.0667 4.36662 15.0917 1.45829C15.0833 1.44996 15.075 1.44162 15.0583 1.44162ZM6.1 9.42496C5.24166 9.42496 4.525 8.63329 4.525 7.65829C4.525 6.68329 5.225 5.89162 6.1 5.89162C6.98333 5.89162 7.68333 6.69162 7.675 7.65829C7.675 8.63329 6.975 9.42496 6.1 9.42496ZM11.9083 9.42496C11.05 9.42496 10.3333 8.63329 10.3333 7.65829C10.3333 6.68329 11.0333 5.89162 11.9083 5.89162C12.7917 5.89162 13.4917 6.69162 13.4833 7.65829C13.4833 8.63329 12.7917 9.42496 11.9083 9.42496Z" fill="#1C4980"/>
</svg>
