<svg xmlns="http://www.w3.org/2000/svg" xmlns:xlink="http://www.w3.org/1999/xlink" width="188.591" height="55.51" viewBox="0 0 188.591 55.51"><defs><style>.a{fill:#96999c;}.b{fill:#fff;}.c{fill:#40bff2;}.d{fill:url(#a);}.e{fill:url(#b);}.f{fill:url(#c);}</style><linearGradient id="a" x1="0.808" y1="0.5" x2="-1.573" y2="0.5" gradientUnits="objectBoundingBox"><stop offset="0" stop-color="gold"/><stop offset="0.075" stop-color="#fece00"/><stop offset="0.48" stop-color="#fca704"/><stop offset="0.803" stop-color="#fa8e07"/><stop offset="1" stop-color="#fa8608"/></linearGradient><linearGradient id="b" x1="0.862" y1="0.178" x2="-0.501" y2="1.948" gradientUnits="objectBoundingBox"><stop offset="0" stop-color="#e82b36"/><stop offset="1" stop-color="#b4005a"/></linearGradient><linearGradient id="c" x1="-0.507" y1="-0.956" x2="0.606" y2="0.489" gradientUnits="objectBoundingBox"><stop offset="0" stop-color="#2f8e5b"/><stop offset="0.39" stop-color="#4ea157"/><stop offset="0.768" stop-color="#67b054"/><stop offset="1" stop-color="#70b653"/></linearGradient></defs><g transform="translate(0 0)"><rect width="187.191" height="54.11" rx="7.382" transform="translate(0.7 0.7)"/><path class="a" d="M206.952,150.1H32.557a7.106,7.106,0,0,1-7.1-7.1V101.687a7.106,7.106,0,0,1,7.1-7.1h174.4a7.106,7.106,0,0,1,7.1,7.1V143A7.106,7.106,0,0,1,206.952,150.1Zm-174.4-54.11a5.7,5.7,0,0,0-5.7,5.7V143a5.7,5.7,0,0,0,5.7,5.7h174.4a5.7,5.7,0,0,0,5.7-5.7V101.687a5.7,5.7,0,0,0-5.7-5.7Z" transform="translate(-25.459 -94.589)"/><g transform="translate(14.064 10.005)"><path class="b" d="M129.423,128.609a5.929,5.929,0,1,0,5.951,5.929A5.844,5.844,0,0,0,129.423,128.609Zm0,9.522a3.6,3.6,0,1,1,3.346-3.593A3.43,3.43,0,0,1,129.423,138.131Zm-12.981-9.522a5.929,5.929,0,1,0,5.95,5.929A5.843,5.843,0,0,0,116.442,128.609Zm0,9.522a3.6,3.6,0,1,1,3.345-3.593A3.43,3.43,0,0,1,116.442,138.131ZM101,130.428v2.515h6.018a5.249,5.249,0,0,1-1.369,3.167A6.165,6.165,0,0,1,101,137.95a6.692,6.692,0,0,1,0-13.383,6.414,6.414,0,0,1,4.536,1.8l1.774-1.774a8.774,8.774,0,0,0-6.31-2.538,9.208,9.208,0,1,0,0,18.414,8.42,8.42,0,0,0,6.423-2.583A8.314,8.314,0,0,0,109.6,132a8.175,8.175,0,0,0-.135-1.572Zm63.154,1.953a5.51,5.51,0,0,0-5.076-3.772,5.634,5.634,0,0,0-5.591,5.929,5.8,5.8,0,0,0,5.883,5.929,5.9,5.9,0,0,0,4.941-2.628l-2.021-1.348a3.388,3.388,0,0,1-2.92,1.64,3.015,3.015,0,0,1-2.874-1.8l7.927-3.278Zm-8.085,1.977a3.252,3.252,0,0,1,3.1-3.459,2.3,2.3,0,0,1,2.2,1.257Zm-6.444,5.748h2.6V122.681h-2.6Zm-4.267-10.172h-.089a4.111,4.111,0,0,0-3.122-1.325,5.934,5.934,0,0,0,0,11.857,4.044,4.044,0,0,0,3.122-1.348h.089v.853c0,2.269-1.212,3.481-3.166,3.481a3.28,3.28,0,0,1-2.986-2.111l-2.269.943a5.651,5.651,0,0,0,5.255,3.5c3.054,0,5.637-1.8,5.637-6.176V128.969h-2.471Zm-2.986,8.2a3.606,3.606,0,0,1,0-7.186,3.622,3.622,0,0,1,0,7.186Zm33.984-15.449h-6.232v17.425h2.6v-6.6h3.632a5.42,5.42,0,1,0,0-10.823Zm.068,8.4h-3.7v-5.974h3.7a2.987,2.987,0,1,1,0,5.974Zm16.073-2.5a4.883,4.883,0,0,0-4.641,2.667l2.31.965a2.463,2.463,0,0,1,2.376-1.278,2.5,2.5,0,0,1,2.735,2.242v.179a5.763,5.763,0,0,0-2.713-.673c-2.488,0-5.021,1.368-5.021,3.923,0,2.331,2.04,3.833,4.327,3.833a3.668,3.668,0,0,0,3.317-1.7h.09v1.345h2.511V133.4C197.786,130.3,195.476,128.577,192.5,128.577Zm-.314,9.55c-.852,0-2.04-.426-2.04-1.479,0-1.345,1.479-1.862,2.758-1.862a4.634,4.634,0,0,1,2.376.583A3.153,3.153,0,0,1,192.181,138.127Zm14.751-9.169-2.982,7.554h-.089l-3.094-7.554h-2.8l4.64,10.559-2.645,5.873h2.713l7.151-16.432Zm-23.427,11.148h2.6V122.681h-2.6Z" transform="translate(-48.352 -108.257)"/><path class="c" d="M42.331,106.757a2.79,2.79,0,0,0-.644,1.957v30.8a2.787,2.787,0,0,0,.644,1.956l.1.1,17.255-17.255v-.407L42.434,106.656Z" transform="translate(-41.687 -106.203)"/><path class="d" d="M68.21,131.842l-5.751-5.754v-.407l5.753-5.753.129.074,6.814,3.872c1.946,1.106,1.946,2.915,0,4.021l-6.814,3.872Z" transform="translate(-44.457 -107.973)"/><path class="e" d="M65.669,132.684,59.788,126.8,42.43,144.158c.642.679,1.7.764,2.895.086l20.345-11.56" transform="translate(-41.786 -108.89)"/><path class="f" d="M65.669,118.162,45.325,106.6c-1.193-.679-2.252-.594-2.895.085l17.358,17.358Z" transform="translate(-41.786 -106.133)"/></g><g transform="translate(57.949 9.723)"><path class="b" d="M98.443,107.629a2.978,2.978,0,0,0-1.975-.762,3.15,3.15,0,0,0,0,6.3,2.378,2.378,0,0,0,2.618-2.214H96.754v-.964h3.594c0,2.881-1.536,4.237-3.88,4.237a4.208,4.208,0,0,1,0-8.414,4.052,4.052,0,0,1,2.773,1.083Z" transform="translate(-92.326 -105.808)"/><path class="b" d="M108.184,105.918v1.035h-3.749v2.619h3.273v1.036h-3.273v2.475H108.3v1.036h-4.974v-8.2Z" transform="translate(-93.793 -105.823)"/><path class="b" d="M116.275,105.918v1.047h-2.488v7.153h-1.118v-7.153h-2.488v-1.047Z" transform="translate(-94.707 -105.823)"/><path class="b" d="M123.17,105.918v8.2h-1.107v-8.2Z" transform="translate(-96.292 -105.823)"/><path class="b" d="M131.109,105.918v1.047h-2.488v7.153H127.5v-7.153h-2.488v-1.047Z" transform="translate(-96.686 -105.823)"/><path class="b" d="M140.42,105.808a4.208,4.208,0,1,1-4.142,4.214A4.159,4.159,0,0,1,140.42,105.808Zm0,7.343a3.138,3.138,0,1,0-3.035-3.129A3.056,3.056,0,0,0,140.42,113.151Z" transform="translate(-98.188 -105.808)"/><path class="b" d="M152.674,114.118l-3.737-6.176v6.176H147.83v-8.2h1.095l3.7,6.129v-6.129h1.107v8.2Z" transform="translate(-99.729 -105.823)"/></g></g></svg>