<svg width="16" height="16" viewBox="0 0 16 16" fill="none" xmlns="http://www.w3.org/2000/svg">
<path d="M8 10.5C9.38071 10.5 10.5 9.38071 10.5 8C10.5 6.61929 9.38071 5.5 8 5.5C6.61929 5.5 5.5 6.61929 5.5 8C5.5 9.38071 6.61929 10.5 8 10.5Z" fill="#1C4980"/>
<path d="M11.4375 0.1875H4.5625C3.40218 0.1875 2.28938 0.648436 1.46891 1.46891C0.648436 2.28938 0.1875 3.40218 0.1875 4.5625V11.4375C0.1875 12.5978 0.648436 13.7106 1.46891 14.5311C2.28938 15.3516 3.40218 15.8125 4.5625 15.8125H11.4375C12.5978 15.8125 13.7106 15.3516 14.5311 14.5311C15.3516 13.7106 15.8125 12.5978 15.8125 11.4375V4.5625C15.8125 3.40218 15.3516 2.28938 14.5311 1.46891C13.7106 0.648436 12.5978 0.1875 11.4375 0.1875ZM8 11.75C7.25832 11.75 6.5333 11.5301 5.91661 11.118C5.29993 10.706 4.81928 10.1203 4.53545 9.43506C4.25162 8.74984 4.17736 7.99584 4.32206 7.26841C4.46675 6.54098 4.8239 5.8728 5.34835 5.34835C5.8728 4.8239 6.54098 4.46675 7.26841 4.32206C7.99584 4.17736 8.74984 4.25162 9.43506 4.53545C10.1203 4.81928 10.706 5.29993 11.118 5.91661C11.5301 6.5333 11.75 7.25832 11.75 8C11.75 8.99456 11.3549 9.94839 10.6517 10.6517C9.94839 11.3549 8.99456 11.75 8 11.75ZM12.0625 4.875C11.8771 4.875 11.6958 4.82002 11.5417 4.717C11.3875 4.61399 11.2673 4.46757 11.1964 4.29627C11.1254 4.12496 11.1068 3.93646 11.143 3.7546C11.1792 3.57275 11.2685 3.4057 11.3996 3.27459C11.5307 3.14348 11.6977 3.05419 11.8796 3.01801C12.0615 2.98184 12.25 3.00041 12.4213 3.07136C12.5926 3.14232 12.739 3.26248 12.842 3.41665C12.945 3.57082 13 3.75208 13 3.9375C13 4.18614 12.9012 4.4246 12.7254 4.60041C12.5496 4.77623 12.3111 4.875 12.0625 4.875Z" fill="#1C4980"/>
</svg>
