<svg width="17" height="16" viewBox="0 0 17 16" fill="none" xmlns="http://www.w3.org/2000/svg">
<path d="M3.78335 2.16677C3.78312 2.6088 3.60732 3.03263 3.2946 3.34504C2.98188 3.65744 2.55787 3.83282 2.11585 3.8326C1.67382 3.83238 1.24998 3.65657 0.937578 3.34386C0.625174 3.03114 0.449791 2.60713 0.450012 2.1651C0.450233 1.72307 0.62604 1.29924 0.938757 0.986834C1.25147 0.674429 1.67548 0.499047 2.11751 0.499268C2.55954 0.499489 2.98338 0.675295 3.29578 0.988012C3.60818 1.30073 3.78357 1.72474 3.78335 2.16677ZM3.83335 5.06677H0.500012V15.5001H3.83335V5.06677ZM9.10001 5.06677H5.78335V15.5001H9.06668V10.0251C9.06668 6.9751 13.0417 6.69177 13.0417 10.0251V15.5001H16.3333V8.89177C16.3333 3.7501 10.45 3.94177 9.06668 6.46677L9.10001 5.06677Z" fill="#1C4980"/>
</svg>
